<?xml version="1.0" encoding="UTF-8"?>
<svg id="Layer_1" xmlns="http://www.w3.org/2000/svg" version="1.1" viewBox="0 0 595.28 552.73">
  <!-- Generator: Adobe Illustrator 29.7.1, SVG Export Plug-In . SVG Version: 2.1.1 Build 8)  -->
  <defs>
    <style>
      .st0 {
        fill: #b54343;
      }
    </style>
  </defs>
  <g>
    <path class="st0" d="M325.85,324.61v28.95l-2.56,3.59c-13.84,0-18.32-4.87-24.34-16.65l-7.56,19.86-33.69-11.15c.51-9.74,1.92-17.04,4.23-25.75l-9.48,2.56c0,13.84,3.84,30.62,6.66,43.56l-15.76,15.25h-2.56c0-22.29-1.15-36.38-1.15-46.51,0-11.02,1.41-18.83,6.92-26.39,12.55-7.81,34.97-14.48,55.98-16.53l11.27,25.37h9.48l2.56,3.84ZM293.57,326.14l-5-9.86-15.76,4.23,20.76,5.64Z"/>
    <path class="st0" d="M340.65,384.82c-3.2-2.95-6.92-5.51-11.02-7.69-1.92,3.07-4.87,6.02-6.92,7.69-3.84-3.46-8.33-6.53-13.58-8.84,2.05-5,5.25-9.61,9.1-13.58,5.38,1.67,10.38,3.72,12.43,6.79,1.67-2.43,3.46-4.74,5.51-6.79,6.53,2.05,12.56,4.61,13.32,8.84.77,3.84-5.25,10.76-8.84,13.58M320.6,357.15l1.18-3.84v-29.59l-1.18-2.95h21.94l-9.61-16.91,13.58-13.45h1.28c5.77,7.94,8.58,23.19,8.58,30.36v9.35l-8.2,27.03h-27.58Z"/>
    <path class="st0" d="M298.5,280.02c-.51,1.54-1.03,3.2-1.41,4.87-1.41.13-27.98,4.43-42.84,7.63.64-1.92,6.23-7.99,6.87-9.4,12.3-2.95,33.79-2.59,37.38-3.1"/>
    <path class="st0" d="M327.36,240.31v28.18l-22.65,4.23c-7.3,0-13.45-6.02-17.04-13.96l-4.1,13.96h-26.26c-13.07,0-17.68-8.84-17.68-26.78l5.89-18.58,4.1,1.03c-.51,7.17,2.95,7.94,18.7,7.94h8.97l-16.53-22.55,13.84-14.35h1.28c5.51,5.25,14.73,21.39,17.3,36.9h11.53l22.65,3.97Z"/>
    <path class="st0" d="M356.82,236.34v9.35l-8.2,27.03h-43.91l-2.56-3.84v-29.59l2.56-2.95h38.28l-9.61-16.91,13.58-13.45h1.28c5.77,7.94,8.58,23.19,8.58,30.36"/>
    <path class="st0" d="M316.94,215.37c-3.84-3.46-8.33-6.53-13.58-8.84,2.05-5,5.25-9.61,9.09-13.58,6.54,2.05,12.56,4.61,13.32,8.84.77,3.84-5.25,10.76-8.84,13.58"/>
    <path class="st0" d="M335.66,167.91c1.17,1.01,8.78,4.21,10.16,5.69-14.85,3.27-51.81,11.99-53.14,12.46-1.04-1.35-2.2-2.66-3.31-3.84,3.48-1.03,33.88-11.87,46.29-14.31"/>
  </g>
  <path class="st0" d="M223.71,374.46c0,1.86-.46,3.59-1.38,5.18-.92,1.59-2.18,2.85-3.79,3.78-1.6.93-3.32,1.39-5.15,1.39s-3.55-.46-5.15-1.39c-1.6-.93-2.87-2.19-3.79-3.78-.92-1.6-1.39-3.31-1.39-5.13s.46-3.57,1.39-5.18c.92-1.61,2.19-2.88,3.79-3.8,1.6-.92,3.32-1.38,5.16-1.38s3.56.46,5.15,1.37c1.59.92,2.85,2.18,3.78,3.8.93,1.61,1.39,3.33,1.39,5.14ZM222.28,374.48c0-1.58-.4-3.06-1.2-4.45-.8-1.39-1.88-2.48-3.25-3.28-1.37-.8-2.84-1.2-4.42-1.2s-3.07.4-4.46,1.2c-1.39.8-2.48,1.89-3.27,3.28-.79,1.39-1.19,2.88-1.19,4.48s.4,3.07,1.19,4.45c.79,1.38,1.89,2.46,3.28,3.26,1.39.8,2.88,1.2,4.46,1.2s3.04-.4,4.42-1.2c1.38-.8,2.46-1.89,3.25-3.26.79-1.37,1.19-2.86,1.19-4.47ZM209.09,368.45h4.96c1.16,0,1.99.12,2.5.35.51.23.92.61,1.24,1.14.32.53.48,1.14.48,1.84,0,.61-.11,1.13-.34,1.57-.18.32-.56.68-1.14,1.07.53.26.89.57,1.08.91.18.35.28.94.28,1.78v1.34c0,.63.14,1.16.42,1.58l.2.32h-2.1c-.14-.49-.23-1.08-.29-1.75l-.1-1.46c-.04-.54-.12-.91-.26-1.13s-.33-.38-.58-.47c-.25-.1-.75-.15-1.49-.15h-2.98v4.97h-1.88v-11.9ZM210.97,370.16v3.52h2.92c.89,0,1.49-.1,1.8-.3.46-.29.7-.78.7-1.47,0-.6-.17-1.05-.5-1.33-.33-.28-.96-.42-1.88-.42h-3.04Z"/>
</svg>