<?xml version="1.0" encoding="UTF-8"?>
<svg id="Layer_1" xmlns="http://www.w3.org/2000/svg" version="1.1" viewBox="0 0 264.14 250.45">
  <!-- Generator: Adobe Illustrator 29.7.1, SVG Export Plug-In . SVG Version: 2.1.1 Build 8)  -->
  <defs>
    <style>
      .st0 {
        fill: #3f3f3f;
      }

      .st1 {
        fill: #fff;
      }

      .st2 {
        fill: #e5e4e1;
      }

      .st3 {
        fill: #b54343;
      }
    </style>
  </defs>
  <path class="st0" d="M185.86,115.27c1.26,5.39,1.83,10.13,1.93,11.01-.21-.08-.45-.11-.71-.11-1.39,0-3.44.87-3.44.87l-.09.03.04.08c.86,1.72,1.33,5.23,1.33,9.21,0,1.37-.05,2.79-.17,4.23-.45,5.57-1.52,5.32-1.65,10.84-.07,2.74-.37,4.26-.65,5.09-.11.34-.23.56-.32.7.03-.17.04-.37.04-.57,0-1.38-.54-3.27-.54-3.27l-.17.03c.01.12.02.25.02.38,0,.89-.27,1.89-.46,2.48-.04-1.06-.38-2.67-.38-2.67h-.17c0,.85-.19,1.61-.35,2.12-.03-.85-.32-1.93-.32-1.94l-.17.03s0,.06,0,.09c0,.43-.14,1.03-.26,1.46-.07-.66-.31-1.39-.34-1.47h0s-.16.04-.16.04h0s0,.01,0,.01c0,.04.01.09.01.15,0,.33-.14.85-.25,1.22-.1-.6-.38-1.34-.38-1.35l-.16.05c.02.09.03.19.03.3,0,.4-.11.89-.21,1.27-.11-.68-.54-1.43-.54-1.43l-.15.05c.04.19.06.42.06.64,0,.4-.05.83-.12,1.16-.15-.58-.53-1.08-.53-1.09l-.15.07c.03.15.05.36.05.58,0,.27-.03.57-.05.84-.13-.7-.43-1.27-.43-1.27l-.16.04c0,.09,0,.17,0,.26,0,.81-.15,1.57-.28,2.05-.06-.95-.36-2.01-.4-2.16h0s0-.02,0-.02l-.16.03c.02.13.03.29.03.46,0,.66-.14,1.53-.26,2.16-.1-1.15-.53-2.59-.53-2.6l-.16.03c0,.1,0,.21,0,.32,0,.72-.09,1.67-.18,2.39-.12-1.19-.45-2.66-.45-2.66l-.17.03c.02.21.03.44.03.68,0,.72-.09,1.5-.19,2.11-.11-1.23-.5-2.76-.5-2.77l-.17.03c.01.13.01.28.01.42,0,.75-.14,1.62-.27,2.26-.05-1.22-.38-2.74-.38-2.74h-.17c-.01.89-.13,1.72-.25,2.3-.09-1-.42-2.3-.42-2.31l-.17.03c.01.09.02.19.02.3,0,.54-.13,1.27-.26,1.83-.07-1.01-.43-2.14-.43-2.14l-.17.03c.01.13.02.26.02.41,0,.56-.1,1.22-.19,1.72-.09-1.06-.38-2.15-.38-2.16l-.17.03v.19c0,.89-.16,1.74-.29,2.28-.05-1.06-.3-2.44-.3-2.44h-.16v.18c0,.86-.18,1.88-.32,2.52-.07-1.21-.34-2.6-.34-2.6l-.16.02v.26c0,.85-.16,1.95-.28,2.68-.13-1.14-.57-2.75-.57-2.76l-.16.03c.02.23.03.46.03.7,0,1.03-.17,2.06-.31,2.7-.11-1.31-.64-3.24-.64-3.25l-.17.03c.03.28.03.55.03.83,0,1.05-.15,2.03-.29,2.7-.04-1.49-.5-3.5-.5-3.51l-.16.02v.19c0,1.83-.17,3.01-.31,3.64-.09-1.5-.52-3.79-.52-3.79h-.16c-.05,1.93-.44,4.13-.44,4.13-.58,2.99-.78,6.21-.78,9.29,0,5.22.58,10.08.84,12.87.42,4.47,4.45,20.51,5.46,23.17.62,1.62,2.51,3.17,2.49,4.31.01.72-.75,1.37-3.27,1.81-.8.14-1.48.2-2.05.2-2.4-.01-2.94-1.05-2.95-2.13,0-.7.25-1.42.42-1.84.09-.21.12-.43.12-.64,0-.97-.7-1.92-.7-3.62,0-.18,0-.38.03-.57,0-.11.01-.23.01-.37,0-3.13-2.39-13.82-2.87-16.6-.51-2.92-2.3-6.06-2.46-8.77-.17-2.74-.05-10.56-.95-13.61-.89-2.98,0-4.46-1.79-9.29-1.79-4.8-4.5-13.01-4.5-13.02l-.16.03c0,11.63-2.17,16.21-2.17,16.24-.12,1.16-.17,2.17-.17,3.07,0,7.36,3.28,7.52,3.27,11.55,0,4.19-4.55,17.06-5.32,19.21-.42-2.74-.51-4.7-.51-6.19,0-1.01.04-1.8.06-2.45,0-.13,0-.26,0-.39,0-1.96-.41-3.97-1.59-7.35-.16-.47-.31-.93-.44-1.39h.03s.17-.72.17-.72c.16-.55.23-1.18.23-1.84,0-3.12-1.49-6.95-1.49-6.96l-.16.03c.05,4.09.24,7.31,1.5,10.93,1.18,3.37,1.58,5.37,1.58,7.3,0,.13,0,.25,0,.39-.01.64-.06,1.44-.07,2.45,0,2.23.22,5.56,1.41,10.93,1.74,7.84,3.34,10.6,3.34,10.61,1.66,3.05,2.06,4.93,2.06,6.02,0,1.01-.33,1.33-.33,1.34-1.47.3-2.77.4-3.81.4-.97,0-1.71-.09-2.22-.17-.49-.09-.75-.17-.77-.17-.85-1.3-.92-4.72-.92-7.85v-1.31c0-1.71-.01-3.21-.2-4.09-.56-2.56-1.12-10.4-3.98-15.9-1.67-3.21-2.01-5.35-2.01-6.94,0-1.11.17-1.95.17-2.7,0-1.78-1.34-16.53-1.68-20.64-.34-4.14-3.61-10.68-3.61-10.68l-.03-.05h-.05c-1.07.18-2.05.25-2.96.25-3.49,0-5.74-1.05-6.13-1.25l.46-1.66c.11-.42.17-.79.17-1.11,0-2.25-2.38-2.3-2.62-2.3h-.03c-2.29.15-2.62,3.78-2.63,6.11,0,1.14.09,1.99.09,1.99.25,7.8,2.32,20.92,3.33,26.07.43,2.22.59,3.47.59,4.66,0,1.58-.28,3.09-.57,6.58-.21,2.52-.37,5.84-.37,9.1,0,4.68.33,9.21,1.38,11.09.92,1.62,1.14,2.83,1.14,3.6,0,.69-.17,1.04-.17,1.05-.23.74-.38.91-.39,1.22,0,.34.2.74.68,2.28.18.58.25,1.07.25,1.46,0,1.5-.99,1.78-.99,1.78-1.44.38-2.66.5-3.66.5-2.31,0-3.45-.69-3.48-.7,0-.01-.52-.95-.52-2.14,0-.74.19-1.58.83-2.39,0-.01.42-.55.42-1.59,0-.29-.03-.62-.11-.99-.04-.18-.06-.37-.06-.56,0-1.46,1.12-3.18,1.22-5.58.05-1.07.21-3.43.21-6.43,0-4.46-.38-10.35-2.12-15.57-.82-2.46-1.08-4.2-1.08-5.64,0-2.49.77-4.13.77-7.11,0-1.4-.17-3.09-.67-5.3-2.17-9.64-3.44-9.71-4.44-13.02h0s-.16.02-.16.02c0,0,.06.44.06,1.06,0,.87-.13,2.07-.7,2.85.05-.25.11-.62.11-1.09,0-.58-.09-1.32-.36-2.17l-.17.02s-.05,1.61-.52,2.07c.03-.18.07-.45.07-.79,0-.54-.1-1.24-.5-1.91-.7-1.16-1.58-1.77-1.58-4.77,0-.57.03-1.23.1-1.99,0,0,.06-.45.06-1.09,0-.43-.03-.95-.12-1.45h0s-.17,0-.17,0c0,0,.02.19.02.49,0,.59-.08,1.6-.56,2.32.07-.29.16-.71.16-1.15,0-.4-.07-.83-.27-1.2l-.16-.28v.39c0,.21-.03.9-.25,1.35.01-.13.03-.3.03-.48,0-.53-.09-1.21-.49-1.71l-.15.07s.07.36.07.76c0,.32-.05.66-.17.89,0-.06,0-.13,0-.21,0-.54-.1-1.46-.7-2.15l-.15.07s.14.5.14,1.04c0,.32-.05.65-.19.91-.02-.44-.13-1.34-.64-2.01l-.15.07s.07.25.07.6c0,.19-.02.4-.09.62-.03-.46-.16-1.22-.64-1.72l-.22-.22.07.3s.05.19.05.5c0,.13,0,.28-.03.45-.09-.46-.28-1.19-.68-1.56l-.13.09s.18.47.18.95c0,.09,0,.17-.02.26-.11-.44-.38-1.23-.99-1.75l-.13.1s.25.54.25,1.24c0,.09,0,.19-.01.28-.1-.36-.32-.89-.77-1.41l-.19-.22.05.29s.36,2.07.36,4.43c0,1.38-.12,2.85-.51,4.06.01-.18.03-.37.03-.58,0-.41-.04-.88-.16-1.34l-.16.03v.18c0,.36-.03,1.19-.33,1.87.02-.24.03-.55.04-.89,0-.65-.05-1.33-.32-1.65l-.16-.19v.25s.03.19.03.48c0,.49-.05,1.25-.26,1.71.02-.23.03-.58.03-.95,0-.7-.05-1.48-.4-1.79l-.17-.15.03.22s.09.6.09,1.25c0,.48-.06.97-.21,1.23,0-.11.01-.25.01-.43,0-.69-.1-1.78-.7-2.45l-.22-.24.07.32s.14.63.14,1.3c0,.42-.06.87-.23,1.17-.03-.66-.14-2.5-.87-3.15l-.19-.17.06.25s.24.92.24,1.78c0,.29-.03.56-.09.79-.05-.71-.23-2.31-.76-2.83l-.19-.17.05.25s.12.69.12,1.4c0,.42-.05.82-.17,1.09v-.03c0-.64-.08-2.09-.81-2.94-.69-.78-2.26-3.58-2.26-7.2,0-1.16.16-2.41.56-3.71.6-1.92.81-2.91.81-3.7,0-1.44-.64-2.25-.81-6.97,0-.22-.01-.42-.01-.62,0-4.43,1.74-5.37,1.75-8.64,0-1.63-.44-3.82-1.74-7.29,0-.02-3.72-9.54-3.72-19.12,0-1.33.07-2.67.24-3.97,0,0,.07-.31.07-.79,0-.64-.11-1.58-.65-2.47l-.15.06s.12.49.12,1.1c0,.36-.04.75-.17,1.11,0-.07,0-.14,0-.21,0-.68-.15-1.73-.92-2.66l-.15.08s.21.7.21,1.45c0,.15,0,.3-.03.44-.05-.6-.23-1.49-.86-1.93l-.2-.13.07.23s.2.64.2,1.31c0,.42-.08.84-.32,1.14,0-.58-.05-2.09-.64-2.75l-.18-.19.03.25s.05.44.05,1c0,.77-.12,1.77-.54,2.14.04-.23.11-.66.11-1.16,0-.73-.13-1.6-.7-2.24l-.2-.22.06.3s.13.68.13,1.38c0,.46-.06.93-.23,1.22-.04-.62-.23-2.34-1.07-3.15l-.14.09s.38.93.38,1.78c0,.25-.03.48-.11.69-.1-.67-.4-2.43-1.03-2.85l-.2-.12.07.21s.21.63.21,1.25c0,.28-.05.56-.16.76-.09-.6-.38-2.35-1.03-2.65l-.15-.07.04.16s.15.62.15,1.21c0,.34-.05.67-.19.87-.04-.57-.19-2.25-.84-2.73l-.18-.11.04.21s.09.37.08.82c0,.31-.03.65-.15.95-.06-.62-.28-2.03-.97-2.54-.52-.38-.92-1.36-.92-2.31,0-.5.11-1,.38-1.38.38-.56.85-1.54.85-2.73,0-1.29-.56-2.82-2.35-4.29-2.74-2.24-5.05-3.68-7.74-3.68-.66,0-2.32,1.05-3.04,1.24-.64.16-1.17.23-1.6.23-1.83,0-1.06-2.15-1.08-2.74,0-.05,0-.09,0-.13l.02-.13-.13.03s-.45.13-.98.13c-.79-.01-1.69-.25-1.7-1.62,0-.36.07-.8.23-1.35,1.18-4.05,1.88-8.42,6.8-8.87.61-.06,3.4-.61,4.07-.67,4.32-.39,14.13-.23,18.79.17,1.16.1,3.67.74,5.21,1.01.33.26,1.3.04,1.94.04.9,0,1.98-.38,2.88-1.49,0,0,.03-.01.07-.01.07,0,.24.05.43.53.06.15.09.36.09.6,0,.89-.49,2.23-1.86,3.3-.03.04-.13.25-.13.62,0,.44.13,1.09.7,1.9.87,1.25,2.25,4.84,2.25,9.76,0,.8-.03,1.64-.12,2.52v.09s.09,0,.09,0h.02c.32,0,3.16.08,3.54,2.7,0,0,.09.54.09,1.21,0,.5-.06,1.08-.22,1.58l-.03.08.08.03s1.8.66,1.87,2.32v.07h.07s1.92.19,3.82.19c1.71-.01,3.4-.12,3.76-.76.01-.04.09-2.57,2.56-2.97,0,0,.05,0,.12,0,.36.01,1.22-.21,1.58-1.97.4-2.11,3.96-2.37,4.5-5.01.44-2.31,1.68-1.81,1.7-4.27,0-.21-.01-.45-.03-.71-.01-.18-.03-.35-.03-.52,0-3.07,2.02-6.56,4.98-8.8.01,0,.75-.55.75-2.05,0-.43-.06-.93-.21-1.52-.22-.87-.3-1.32-.3-1.62,0-.6.34-.7.6-2.54.08-.6.12-1.02.12-1.34,0-1.18-.49-.99-1.01-2.8-.25-.89-.47-1.72-.47-2.5,0-1.27.56-2.35,2.52-3.24,1.42-.63,2.91-1.07,4.44-1.07,1.91,0,3.9.68,5.91,2.53,0,0,.11.09.24.4.13.32.26.87.26,1.78,0,.13,0,.25,0,.4-.01.23-.01.48-.01.72,0,1.25.1,2.46.1,3.31,0,.46-.03.82-.12,1.01l-.05.11h.12s2.15.18,2.31,1.99c0,0,.05.76.05,1.36,0,.28-.01.53-.04.6l-.07.22.38-.22c.52-.08,1.05-.13,1.56-.13,3.12,0,5.58,1.58,7.25,3.15,1.67,1.58,2.56,3.15,2.57,3.15,2.08,3.6,2.58,6.56,2.58,9,0,2.28-.44,4.09-.44,5.54,0,.83.14,1.54.6,2.13,2.05,2.66,2.28,5.94,2.56,9.35.01.13.01.25.01.38,0,3.3-3.29,7.33-3.29,7.34l-.09.1.13.03c4.53,1.01,5.99,1.38,10.86,7.07,4.84,5.68.93,3.11,7.81,9.4,3.41,3.12,5.68,9.86,7.09,15.83M112.84,73.25l-.03-.17s-.7.05-1.87.05c-.75,0-1.7-.02-2.77-.09h-.1s.01.09.01.09c0,0,.02.26.02.63,0,.26-.01.58-.05.89-.05-.26-.14-.56-.32-.77l-.11-.13-.03.17s-.15.79-.15,1.72c0,.28.01.58.05.88-.2-.53-.42-1.17-.49-1.68h-.17s0,.16,0,.42c0,.52.03,1.45.29,2.36-.38-.75-.81-1.79-.84-2.71h-.17s-.03.25-.03.66c0,.77.09,2.1.62,3.42-.44-.61-1.04-1.56-1.06-2.26l-.17-.02s-.05.27-.05.69c0,.52.09,1.29.49,2.11-.46-.56-1.09-1.5-1.25-2.66h-.17v.03c0,.09.01.61.13,1.3.11.68.32,1.52.74,2.25-.25-.18-.6-.55-.84-1.24l-.17.04s.12.84.16,1.3c0,.05,0,.09,0,.12.01.4.07,2.41.53,3.81l.07.23.09-.23s.92-2.39,2.68-3.82c1.8-1.45,1.97-2.05,2.01-4.42.04-2.29,2.95-2.95,2.96-2.95"/>
  <path class="st0" d="M142.81,196.49s-1.11,6.46-2.45,9.72c-.47,1.15-.61,2.15-.61,3.01,0,1.21.27,2.17.27,3.03,0,.28-.03.54-.11.81-.21.83-1.76,1.07-3.13,1.06-.57,0-1.11-.03-1.5-.07-.39-.03-.64-.07-.64-.07-1.53-.19-2.19-.72-2.19-1.68,0-1.11.94-2.83,2.7-5.18,2.97-3.97,5.76-15.91,6.21-17.39.69,2.33,1.14,4.72,1.47,6.76"/>
  <path class="st0" d="M134.32,53.76c-5.08,3.2-8.19,3.26-10.12,2.62-.95-.32-3.23-1.33-4.63-.32-.49.36-.74.87-.83,1.05-.42.88-.19,1.48.04,3.63.22,1.97.32,2.96.14,3.62-.18.64-.45,1.12-.21,1.46.34.47,1.38.24,1.65.19,1.45-.28,4.75-.37,11.57-.02l2.39-12.24Z"/>
  <path class="st1" d="M114.75,64.26l-3.16.35c-.16.02-.3-.1-.32-.26v-.13c-.03-.16.08-.3.24-.32l3.16-.35c.16-.02.3.1.32.26v.13c.03.16-.08.3-.24.32"/>
  <path class="st0" d="M110.26,59.38c-.22-.02-.42.08-.51.25-.13.24.06.5.08.53.21.29.63.31.63.34,0,.04-.46-.12-.61.06-.13.15-.02.54.23.74.27.23.69.19.69.2,0,0-.58-.15-.73.06-.09.12-.02.36.1.5.25.29.78.24.78.25s-.52-.12-.67.08c-.12.15,0,.45.13.62.3.39.87.36.95.35l-1.07-3.96Z"/>
  <path class="st3" d="M109.52,57.64l.04.34h.12s1.44,6.05,1.44,6.05c.02.09.12.15.23.14l3.52-.41c.11-.01.19-.1.19-.19l-.03-6.23.14-.02-.04-.34-5.61.66Z"/>
  <path class="st2" d="M113.36,60.94l-.16.2.16.22-.26.03h-.04s-.09.01-.09.01l-.19-.33c-.28.06-.58.19-.74.31-.06.11-.07.22-.05.37.02.14.05.33.09.63h.03s.19-.24.19-.24c-.06-.17-.14-.4-.16-.59l.13-.05c-.02.12-.03.23-.02.36l.48.1.07-.28c.09.14.16.2.32.19h0s.38-.04.38-.04l.07-.38-.02-.13c0-.1-.07-.3-.16-.4h-.02ZM112.4,61.47l.21-.08.08.13-.29-.05Z"/>
  <path class="st2" d="M113.33,61.94s-.05.06-.07.1c-.03-.04-.1-.06-.18-.07-.05.06-.08.13-.1.2.08.02.14.06.2.1.03-.03.06-.07.08-.12.06.02.11.05.16.09.05-.05.12-.15.1-.2-.02-.06-.1-.08-.2-.1"/>
  <path class="st2" d="M112.18,60.97s-.07.11-.08.14c.2-.07.56-.17.57-.17,0-.02,0-.05.01-.07-.05.01-.34.04-.51.1"/>
  <path class="st2" d="M113.25,59.78h-.02s-.16.21-.16.21l.16.22-.52.06-.16.02c-.06-.21-.21-.42-.29-.48h-.02s-.17.22-.17.22l.26.28h-.12c-.22.04-.26.03-.27-.07h-.06s-.05.26-.05.26c.03.25.1.36.28.34l.36-.04.03-.2c.06.1.15.18.25.16l.6-.07.07-.38v-.13c-.02-.1-.09-.3-.18-.4"/>
  <path class="st2" d="M112.74,59.66c-.05.06-.08.13-.1.2.08.02.14.06.2.1.05-.05.12-.15.1-.2-.02-.06-.1-.08-.2-.1"/>
  <path class="st2" d="M113.17,59.34s-.13-.05-.15-.06c-.17.05-.57.25-.61.27.02.01.04.03.05.05.02,0,.51-.19.71-.25"/>
  <path class="st0" d="M121.05,58.65c-1.85.65-2.79.44-3.31.11-.02-.01-.67-.44-1.47-.74-.18-.07-.49-.17-.88-.14-.18.01-.31.06-.56.14-.44.14-.47.21-1.24.55-.35.16-.5.21-.61.39-.08.13-.16.36-.06.5.11.16.41.13.66.1.43-.05.56-.19.97-.24.2-.02.36-.07.51.01.03.02-.05.21-.06.36-.01.17.03.21.03.25,0,.18.03.35.03,1.14,0,.58,0,.94.02,1.07.02.2-.03.36-.02.83,0,.13.04.19.04.21.05.16.82.46,5.32-.28l.63-4.25Z"/>
  <rect class="st0" x="114.94" y="58.96" width=".23" height="4.01"/>
</svg>