<?xml version="1.0" encoding="UTF-8"?>
<svg xmlns="http://www.w3.org/2000/svg" xmlns:xlink="http://www.w3.org/1999/xlink" version="1.1" viewBox="89.55 168.56 643.04 187.2">
  <!-- Generator: Adobe Illustrator 29.7.1, SVG Export Plug-In . SVG Version: 2.1.1 Build 8)  -->
  <defs>
    <style>
      .st0 {
        fill: none;
      }

      .st1, .st2 {
        fill: #3f3f3f;
      }

      .st3 {
        fill: url(#linear-gradient2);
      }

      .st4 {
        fill: url(#linear-gradient1);
      }

      .st5 {
        fill: url(#linear-gradient9);
      }

      .st6 {
        fill: url(#linear-gradient3);
      }

      .st7 {
        fill: url(#linear-gradient6);
      }

      .st8 {
        fill: url(#linear-gradient8);
      }

      .st9 {
        fill: url(#linear-gradient7);
      }

      .st10 {
        fill: url(#linear-gradient5);
      }

      .st11 {
        fill: url(#linear-gradient4);
      }

      .st12 {
        mix-blend-mode: multiply;
        opacity: .2;
      }

      .st13 {
        fill: url(#linear-gradient18);
      }

      .st14 {
        fill: url(#linear-gradient13);
      }

      .st15 {
        fill: url(#linear-gradient12);
      }

      .st16 {
        fill: url(#linear-gradient15);
      }

      .st17 {
        fill: url(#linear-gradient16);
      }

      .st18 {
        fill: url(#linear-gradient11);
      }

      .st19 {
        fill: url(#linear-gradient10);
      }

      .st20 {
        fill: url(#linear-gradient17);
      }

      .st21 {
        fill: url(#linear-gradient14);
      }

      .st22 {
        fill: url(#linear-gradient19);
      }

      .st23 {
        fill: url(#linear-gradient23);
      }

      .st24 {
        fill: url(#linear-gradient22);
      }

      .st25 {
        fill: url(#linear-gradient24);
      }

      .st26 {
        fill: url(#linear-gradient25);
      }

      .st27 {
        fill: url(#linear-gradient21);
      }

      .st28 {
        fill: url(#linear-gradient20);
      }

      .st29 {
        fill: url(#linear-gradient27);
      }

      .st30 {
        fill: url(#linear-gradient26);
      }

      .st31 {
        fill: url(#linear-gradient);
      }

      .st32 {
        isolation: isolate;
      }

      .st33 {
        clip-path: url(#clippath-17);
      }

      .st34 {
        clip-path: url(#clippath-19);
      }

      .st35 {
        clip-path: url(#clippath-11);
      }

      .st36 {
        clip-path: url(#clippath-16);
      }

      .st37 {
        clip-path: url(#clippath-18);
      }

      .st38 {
        clip-path: url(#clippath-10);
      }

      .st39 {
        clip-path: url(#clippath-15);
      }

      .st40 {
        clip-path: url(#clippath-13);
      }

      .st41 {
        clip-path: url(#clippath-14);
      }

      .st42 {
        clip-path: url(#clippath-12);
      }

      .st43 {
        clip-path: url(#clippath-31);
      }

      .st44 {
        clip-path: url(#clippath-32);
      }

      .st45 {
        clip-path: url(#clippath-30);
      }

      .st46 {
        clip-path: url(#clippath-27);
      }

      .st47 {
        clip-path: url(#clippath-29);
      }

      .st48 {
        clip-path: url(#clippath-26);
      }

      .st49 {
        clip-path: url(#clippath-28);
      }

      .st50 {
        clip-path: url(#clippath-20);
      }

      .st51 {
        clip-path: url(#clippath-21);
      }

      .st52 {
        clip-path: url(#clippath-22);
      }

      .st53 {
        clip-path: url(#clippath-23);
      }

      .st54 {
        clip-path: url(#clippath-24);
      }

      .st55 {
        clip-path: url(#clippath-1);
      }

      .st56 {
        clip-path: url(#clippath-3);
      }

      .st57 {
        clip-path: url(#clippath-4);
      }

      .st58 {
        clip-path: url(#clippath-2);
      }

      .st59 {
        clip-path: url(#clippath-7);
      }

      .st60 {
        clip-path: url(#clippath-6);
      }

      .st61 {
        clip-path: url(#clippath-9);
      }

      .st62 {
        clip-path: url(#clippath-8);
      }

      .st63 {
        clip-path: url(#clippath-5);
      }

      .st64 {
        fill: #e5e4e1;
      }

      .st65 {
        fill: #d9c5af;
      }

      .st66 {
        clip-path: url(#clippath);
      }

      .st2 {
        fill-rule: evenodd;
      }
    </style>
    <clipPath id="clippath">
      <path class="st0" d="M426.67,212.9c-21.23-.82-51.34-.14-66.7,5.53,4.77,2.11,10.15,4.39,15.95,6.47,13.46-.66,31.04-.97,51.88-1.57,44.31-1.28,44.31-13.62,95.31-22.39.06-.01.11-.02.16-.03-23.25,3.12-47.4,1.63-70.41-2.16-.72-.12-1.45-.22-2.18-.31,9.33,2.58,3.49,15.53-24,14.46"/>
    </clipPath>
    <linearGradient id="linear-gradient" x1="-254.19" y1="971.18" x2="-252.57" y2="971.18" gradientTransform="translate(25919.17 97864.57) scale(100.55 -100.55)" gradientUnits="userSpaceOnUse">
      <stop offset="0" stop-color="#efdccb"/>
      <stop offset="0" stop-color="#efdccb"/>
      <stop offset=".47" stop-color="#ecd9c8"/>
      <stop offset=".76" stop-color="#e6d2bf"/>
      <stop offset="1" stop-color="#dbc7b2"/>
    </linearGradient>
    <clipPath id="clippath-1">
      <path class="st0" d="M323.93,173.96c1.89,8.49-8.05,8.14-9.75,16.12,9.81,7.69,23.6,19.15,32.92,22.71,3.43,1.31,7.8,3.39,12.87,5.63,15.36-5.67,45.48-6.35,66.7-5.53,27.5,1.07,33.34-11.88,24-14.46-13.48-1.74-27.88.64-41.31.96-20.33.48-39.66-3.85-57.79-12.62-10.73-5.2-20.89-11.53-30.76-18.1,1.5,2.08,2.8,3.86,3.12,5.29"/>
    </clipPath>
    <linearGradient id="linear-gradient1" x1="-255.27" y1="972.25" x2="-253.65" y2="972.25" gradientTransform="translate(22418.53 84382.04) scale(86.59 -86.59)" xlink:href="#linear-gradient"/>
    <clipPath id="clippath-2">
      <path class="st0" d="M228.58,209.64c-27.06,1.99-124.71,57.71-138.86,64.6l53.63,4.61,39.58-10.2,397.84,18.26v-17.94s1.34-13.09-59.76-15.43c-61.11-2.35-88.64-21.27-113.14-21.91-24.5-.64-48.68-14.04-60.77-18.83-12.08-4.79-33.23-23.62-45.32-32.24-3.02-2.15-6.27-3.71-10.04-4.79,16.08,5.85,7.12,28.7-63.16,33.87"/>
    </clipPath>
    <linearGradient id="linear-gradient2" x1="-254.91" y1="965.86" x2="-253.28" y2="965.86" gradientTransform="translate(-138308.85 36659.31) rotate(90) scale(143.55 -143.55)" xlink:href="#linear-gradient"/>
    <clipPath id="clippath-3">
      <path class="st0" d="M547.87,220.78c-20.03,3.33-33.43,19.21-51.61,30.77,7.61.94,15.81,1.65,24.76,1.99,61.1,2.35,59.76,15.43,59.76,15.43v17.94l74.87,3.44s79.38,25.72,65.45,17.09c-.04-.02-42.13-56.12-63.71-70.84-.95-.65-1.92-1.25-2.91-1.84-4.31-2.58-65.17-32.35-79.62-35.28-4.71-.96-9.33-1.57-13.91-1.87,14.55,2.46,22.1,17.31-13.06,23.16"/>
    </clipPath>
    <linearGradient id="linear-gradient3" x1="-252.3" y1="969.31" x2="-250.67" y2="969.31" gradientTransform="translate(35679.99 135431.71) scale(139.45 -139.45)" xlink:href="#linear-gradient"/>
    <clipPath id="clippath-4">
      <path class="st0" d="M550.3,197.46c-6.14.22-12.31.95-18.63,2.13-2.79.52-5.6.95-8.42,1.33-.05.01-.1.02-.16.03-51,8.77-51,21.11-95.31,22.39-20.84.6-38.42.91-51.88,1.57,9.86,3.53,20.87,6.43,31.96,6.72,20.92.54,44.06,14.41,88.39,19.92,18.19-11.56,31.59-27.43,51.61-30.77,35.17-5.85,27.61-20.7,13.06-23.16-2.24-.15-4.48-.22-6.7-.22-1.22.12-2.53.13-3.92.06"/>
    </clipPath>
    <linearGradient id="linear-gradient4" x1="-251.09" y1="968.83" x2="-249.47" y2="968.83" gradientTransform="translate(46347.92 177702.63) scale(183.19 -183.19)" xlink:href="#linear-gradient"/>
    <clipPath id="clippath-5">
      <path class="st0" d="M421.23,242.26c-.06,0-.11,0-.17,0,.05,0,.11,0,.17,0h0M421.24,242.26s.07,0,.11,0c-.04,0-.07,0-.11,0"/>
    </clipPath>
    <linearGradient id="linear-gradient5" x1="-241.55" y1="971.94" x2="-239.92" y2="971.94" gradientTransform="translate(-74954.07 -18384.56) rotate(-90) scale(77.55)" xlink:href="#linear-gradient"/>
    <clipPath id="clippath-6">
      <path class="st0" d="M419.8,242.38c.36-.03.72-.07,1.08-.1-.37.01-.73.05-1.08.1"/>
    </clipPath>
    <linearGradient id="linear-gradient6" x1="-241.5" y1="971.98" x2="-239.88" y2="971.98" gradientTransform="translate(-74511.67 -18273.99) rotate(-90) scale(77.09)" xlink:href="#linear-gradient"/>
    <clipPath id="clippath-7">
      <path class="st0" d="M421.34,242.26c.65,0,1.33-.04,2.03-.08-.67,0-1.35.04-2.03.08"/>
    </clipPath>
    <linearGradient id="linear-gradient7" x1="-241.52" y1="971.97" x2="-239.9" y2="971.97" gradientTransform="translate(-74699.96 -18325.81) rotate(-90) scale(77.29)" xlink:href="#linear-gradient"/>
    <clipPath id="clippath-8">
      <path class="st0" d="M423.37,242.18c-.7.04-1.38.07-2.03.08-.09,0-.19,0-.27.01-.07,0-.13,0-.19,0-.36.03-.72.06-1.08.1-10.93,1.4-10.45,16.64,12.6,20.14,20.08,3.05,41.66,7.37,51.33,18.28,25.25-5.54,48.1-7.3,56.88-11.54.03-.01,28.8-16.05,28.82-16.06-38.87,5.35-91.08-2.89-111.48-8.17-8.9-2.31-22.12-2.88-30.87-2.88-1.36,0-2.62.01-3.73.04"/>
    </clipPath>
    <linearGradient id="linear-gradient8" x1="-243.07" y1="970.53" x2="-241.45" y2="970.53" gradientTransform="translate(-93312.06 -23174.17) rotate(-90) scale(96.65)" xlink:href="#linear-gradient"/>
    <clipPath id="clippath-9">
      <path class="st0" d="M420.88,242.28c.06,0,.13,0,.19,0-.07,0-.13,0-.19,0"/>
    </clipPath>
    <linearGradient id="linear-gradient9" x1="-241.61" y1="971.89" x2="-239.98" y2="971.89" gradientTransform="translate(-75541.24 -18546.99) rotate(-90) scale(78.16)" xlink:href="#linear-gradient"/>
    <clipPath id="clippath-10">
      <path class="st0" d="M238.23,240.93c-6.66,1.28-10.89,10.66,15.3,17.94,26.21,7.3,32.52,31.31,16.26,39.51l-.98,26.64,72.25,4.38,1.06-17.05s11.65-25.18,29.45-23.51c17.8,1.67,43.68,4.05,82.84-2.42,10.38-1.71,20.23-3.63,29.33-5.63-9.68-10.91-31.26-15.23-51.33-18.28-23.05-3.5-23.53-18.74-12.6-20.14-12.84,1.09-25.85,6.56-44.19,14.98-31.79,14.59-69.41,7.9-93.92-1.52-18.09-6.96-28.38-15.01-40.99-15.01-.81,0-1.63.03-2.47.1"/>
    </clipPath>
    <linearGradient id="linear-gradient10" x1="-245.61" y1="968.71" x2="-243.99" y2="968.71" gradientTransform="translate(-38748.29 155018.79) rotate(-180) scale(159.73)" xlink:href="#linear-gradient"/>
    <clipPath id="clippath-11">
      <path class="st0" d="M225.95,244.28c-21.03,9.32-25.56,7.7-52.75,7.7s-50.48,96.82-50.48,96.82l-2.43,6.86,148.52-30.63.98-26.64c16.26-8.2,9.95-32.22-16.26-39.51-26.19-7.29-21.96-16.67-15.3-17.94-3.76.32-7.77,1.35-12.28,3.35"/>
    </clipPath>
    <linearGradient id="linear-gradient11" x1="-242.81" y1="971.03" x2="-241.18" y2="971.03" gradientTransform="translate(-23406.24 95017.75) rotate(-180) scale(97.55)" xlink:href="#linear-gradient"/>
    <clipPath id="clippath-12">
      <path class="st0" d="M569.44,253.19c-10.45,2.8-20.49,7.44-30.74,11.16-.47.16-.94.31-1.4.46-.03.02-.05.03-.07.04-11.96,5.77-43.67,15.11-82.82,21.58-39.15,6.48-65.04,4.09-82.84,2.42-17.8-1.67-29.45,23.51-29.45,23.51l-1.06,17.05,169.98,10.31,54.12-3.28v-17.09s-.97-12.47,43.2-14.7c6.47-.33,12.4-1,17.9-1.9-13.15-11.01-22.83-26.12-37.31-29.3-25.42-5.57-19.96-19.72-9.44-22.05-3.31.29-6.65.87-10.06,1.78"/>
    </clipPath>
    <linearGradient id="linear-gradient12" x1="-246.21" y1="968.35" x2="-244.58" y2="968.35" gradientTransform="translate(-42610.55 170349.28) rotate(-180) scale(175.61)" xlink:href="#linear-gradient"/>
    <clipPath id="clippath-13">
      <path class="st0" d="M579.5,251.41c-10.52,2.34-15.98,16.48,9.44,22.05,14.48,3.17,24.17,18.29,37.31,29.3,20.41-3.34,34.6-2.22,46.12-1.09,6.57.64,12.28,1.28,17.77,1.09,3.63-.12,11.21,2.87,19.07,5.86,9.46,3.6,19.34,7.2,23.23,5.36-9.73-.63-29.7-36.16-56.7-38.08-31.98-2.28-32.03-12.97-68.9-21.32-.04,0-.08-.02-.12-.03-2.04-.36-4.07-.77-6.09-1.27-4.57-1.12-9.03-1.82-13.47-2.03-1.01.07-1.95.06-2.84-.06-1.61,0-3.22.07-4.85.21"/>
    </clipPath>
    <linearGradient id="linear-gradient13" x1="-245.59" y1="968.21" x2="-243.96" y2="968.21" gradientTransform="translate(-151265.18 -38137.47) rotate(-90) scale(156.9)" xlink:href="#linear-gradient"/>
    <clipPath id="clippath-14">
      <rect class="st0" x="570.47" y="251.2" width="60.48" height="51.56"/>
    </clipPath>
    <clipPath id="clippath-15">
      <path class="st0" d="M579.25,251.4c1.62-.14,3.24-.2,4.85-.21.88.12,1.83.13,2.83.06.52.02,1.04.08,1.55.12-1.76,7.59,4.6,15.01,18,23.77,12.51,8.17,20.27,19.22,24.46,26.72-1.6.31-3.25.62-4.93.9-13.15-11.01-22.83-26.13-37.31-29.3-25.42-5.57-19.96-19.71-9.45-22.05"/>
    </clipPath>
    <linearGradient id="linear-gradient14" x1="-261.28" y1="981" x2="-259.65" y2="981" gradientTransform="translate(10301.82 36814.56) scale(37.25 -37.25)" xlink:href="#linear-gradient"/>
    <clipPath id="clippath-16">
      <rect class="st0" x="413.1" y="242.38" width="50.72" height="26.88"/>
    </clipPath>
    <clipPath id="clippath-17">
      <path class="st0" d="M420.02,242.4c.1-.01.19-.02.28-.02,1.24,4.55,5.9,8.61,14.43,11.1,15.38,4.5,24.12,10.52,29.09,15.78-9.49-3.13-20.55-5.1-31.19-6.71-23.05-3.5-23.53-18.75-12.61-20.14"/>
    </clipPath>
    <linearGradient id="linear-gradient15" x1="-265.63" y1="984.34" x2="-264" y2="984.34" gradientTransform="translate(8709.37 30999.53) scale(31.23 -31.23)" xlink:href="#linear-gradient"/>
    <clipPath id="clippath-18">
      <rect class="st0" x="233.19" y="240.93" width="32.93" height="23.67"/>
    </clipPath>
    <clipPath id="clippath-19">
      <path class="st0" d="M238.23,241.03c4.21-.35,8.1.22,12.03,1.38-4.26,4.63,8.95,16.83,14.04,20.46.74.52,1.34,1.12,1.84,1.73-3.5-2.32-7.7-4.27-12.6-5.64-26.19-7.29-21.96-16.66-15.3-17.94"/>
    </clipPath>
    <linearGradient id="linear-gradient16" x1="-278.15" y1="994.85" x2="-276.52" y2="994.85" gradientTransform="translate(5875.44 20433.18) scale(20.29 -20.29)" xlink:href="#linear-gradient"/>
    <clipPath id="clippath-20">
      <polyline class="st0" points="471.69 179.52 471.69 179.52 471.69 179.52 471.7 179.52 471.69 179.52"/>
    </clipPath>
    <linearGradient id="linear-gradient17" x1="471.69" y1="179.52" x2="471.7" y2="179.52" gradientTransform="matrix(0,0,0,0,808.05,917.48)" xlink:href="#linear-gradient"/>
    <clipPath id="clippath-21">
      <path class="st0" d="M471.69,179.52h0,0Z"/>
    </clipPath>
    <linearGradient id="linear-gradient18" x1="471.69" y1="179.52" x2="471.69" y2="179.52" gradientTransform="matrix(0,0,0,0,795.62,922.87)" xlink:href="#linear-gradient"/>
    <clipPath id="clippath-22">
      <polyline class="st0" points="471.69 179.52 471.69 179.52 471.69 179.52 471.7 179.52 471.69 179.52"/>
    </clipPath>
    <linearGradient id="linear-gradient19" x1="471.69" y1="179.52" x2="471.7" y2="179.52" gradientTransform="matrix(0,0,0,0,132.66,916.17)" xlink:href="#linear-gradient"/>
    <clipPath id="clippath-23">
      <path class="st0" d="M471.69,179.52h0,0ZM471.7,179.52h0s0,0,0,0h0Z"/>
    </clipPath>
    <linearGradient id="linear-gradient20" x1="471.69" y1="179.52" x2="471.7" y2="179.52" gradientTransform="matrix(0,0,0,0,808.14,917.85)" xlink:href="#linear-gradient"/>
    <clipPath id="clippath-24">
      <path class="st0" d="M471.69,179.52h0,0M471.7,179.52h0s0,0,0,0Z"/>
    </clipPath>
    <linearGradient id="linear-gradient21" x1="471.69" y1="179.52" x2="471.7" y2="179.52" gradientTransform="matrix(0,0,0,0,685.35,962.75)" xlink:href="#linear-gradient"/>
    <clipPath id="clippath-26">
      <path class="st0" d="M471.69,179.52h0,0Z"/>
    </clipPath>
    <linearGradient id="linear-gradient22" x1="471.69" y1="179.52" x2="471.7" y2="179.52" gradientTransform="matrix(0,0,0,0,893.79,871.65)" xlink:href="#linear-gradient"/>
    <clipPath id="clippath-27">
      <polyline class="st0" points="471.69 179.52 471.69 179.52 471.69 179.52 471.69 179.52"/>
    </clipPath>
    <linearGradient id="linear-gradient23" x1="471.69" y1="179.52" x2="471.69" y2="179.52" gradientTransform="matrix(0,0,0,0,816.09,914.05)" xlink:href="#linear-gradient"/>
    <clipPath id="clippath-28">
      <polyline class="st0" points="471.69 179.52 471.69 179.52 471.69 179.52 471.69 179.52 471.69 179.52"/>
    </clipPath>
    <linearGradient id="linear-gradient24" x1="471.69" y1="179.52" x2="471.69" y2="179.52" gradientTransform="matrix(0,0,0,0,816.23,913.44)" xlink:href="#linear-gradient"/>
    <clipPath id="clippath-29">
      <polygon class="st0" points="471.69 179.52 471.69 179.52 471.7 179.52 471.7 179.52 471.69 179.52"/>
    </clipPath>
    <linearGradient id="linear-gradient25" x1="471.69" y1="179.52" x2="471.7" y2="179.52" gradientTransform="matrix(0,0,0,0,807.36,918.22)" xlink:href="#linear-gradient"/>
    <clipPath id="clippath-30">
      <path class="st0" d="M471.7,179.52h0,0Z"/>
    </clipPath>
    <linearGradient id="linear-gradient26" x1="471.7" y1="179.52" x2="471.7" y2="179.52" gradientTransform="matrix(0,0,0,0,930.99,848.01)" xlink:href="#linear-gradient"/>
    <clipPath id="clippath-31">
      <path class="st0" d="M471.7,179.52"/>
    </clipPath>
    <clipPath id="clippath-32">
      <polyline class="st0" points="471.69 179.52 471.69 179.52 471.7 179.52 471.69 179.52"/>
    </clipPath>
    <linearGradient id="linear-gradient27" x1="471.69" y1="179.52" x2="471.7" y2="179.52" gradientTransform="matrix(0,0,0,0,795.49,922.33)" xlink:href="#linear-gradient"/>
  </defs>
  <g class="st32">
    <g id="Layer_1">
      <g class="st66">
        <rect class="st31" x="359.96" y="198.44" width="163.29" height="26.46"/>
      </g>
      <g class="st55">
        <rect class="st4" x="314.18" y="168.67" width="145.82" height="49.76"/>
      </g>
      <g class="st58">
        <rect class="st3" x="133.73" y="8.07" width="404.36" height="446.55" transform="translate(-58.18 336.44) rotate(-49.49)"/>
      </g>
      <g class="st56">
        <rect class="st6" x="496.25" y="197.62" width="238.77" height="118.46"/>
      </g>
      <g class="st57">
        <rect class="st11" x="372.71" y="178.94" width="213.53" height="91.07" transform="translate(-32.93 91.35) rotate(-10.52)"/>
      </g>
      <g>
        <path class="st65" d="M450.53,198.45c-3.92-.51-7.93-.66-11.96-.62,1.36,3.63-22.17,11.21-56.8,16.18h0c14.52-1.54,31.39-1.62,44.75-1.1,27.51,1.06,33.35-11.88,24.02-14.46"/>
        <path class="st65" d="M561.27,197.61c-2.24-.14-4.48-.21-6.71-.22-1.21.12-2.53.13-3.92.06-.71.02-1.43.08-2.15.12,2.43,7.97-6.36,15.76-24.9,24.96-17.3,8.58-28.04,20.19-33.83,28.06,2.22.33,4.49.65,6.82.94,18.19-11.56,31.58-27.43,51.61-30.77,35.17-5.85,27.61-20.7,13.07-23.16"/>
      </g>
      <g class="st63">
        <rect class="st10" x="421.18" y="242.13" width=".05" height=".27" transform="translate(127.8 629.59) rotate(-82.76)"/>
      </g>
      <g class="st60">
        <rect class="st7" x="420.22" y="241.78" width=".23" height="1.09" transform="translate(127 628.8) rotate(-82.76)"/>
      </g>
      <g class="st59">
        <rect class="st9" x="422.19" y="241.21" width=".33" height="2.02" transform="translate(128.88 630.71) rotate(-82.77)"/>
      </g>
      <g class="st62">
        <rect class="st8" x="459.87" y="179.39" width="58.57" height="164.16" transform="translate(168.17 713.8) rotate(-82.77)"/>
      </g>
      <g class="st61">
        <rect class="st5" x="420.96" y="242.18" width=".03" height=".19" transform="translate(127.65 629.41) rotate(-82.77)"/>
      </g>
      <g class="st38">
        <rect class="st19" x="227.34" y="240.83" width="256.39" height="88.58"/>
      </g>
      <g class="st35">
        <rect class="st18" x="120.29" y="240.93" width="165.76" height="114.73"/>
      </g>
      <g class="st42">
        <rect class="st15" x="341.06" y="251.41" width="285.19" height="88.31"/>
      </g>
      <g class="st40">
        <rect class="st14" x="600.79" y="194.56" width="94.38" height="177.88" transform="translate(250.89 868.8) rotate(-79.48)"/>
      </g>
      <g class="st12">
        <g class="st41">
          <g class="st39">
            <rect class="st21" x="563.28" y="251.2" width="67.67" height="51.56"/>
          </g>
        </g>
      </g>
      <g class="st12">
        <g class="st36">
          <g class="st33">
            <rect class="st16" x="409.09" y="242.38" width="54.73" height="26.88"/>
          </g>
        </g>
      </g>
      <g class="st12">
        <g class="st37">
          <g class="st34">
            <rect class="st17" x="227.34" y="240.69" width="38.8" height="23.92"/>
          </g>
        </g>
      </g>
      <polyline class="st64" points="471.69 179.52 471.69 179.52 471.69 179.52 471.69 179.51 471.69 179.52"/>
      <polyline class="st65" points="471.69 179.52 471.69 179.52 471.69 179.52 471.69 179.52 471.69 179.52 471.69 179.52 471.69 179.52"/>
      <g class="st50">
        <rect class="st20" x="471.69" y="179.52" width="0" height="0" transform="translate(-29.46 119.76) rotate(-14.04)"/>
      </g>
      <g class="st51">
        <rect class="st13" x="471.69" y="179.52" width="0" height="0" transform="translate(-30.39 128.16) rotate(-15)"/>
      </g>
      <g class="st52">
        <rect class="st22" x="471.69" y="179.52" width="0" height="0" transform="translate(98.7 519.52) rotate(-63.19)"/>
      </g>
      <g class="st53">
        <rect class="st28" x="471.69" y="179.52" width="0" height="0" transform="translate(-29.46 119.76) rotate(-14.04)"/>
      </g>
      <g class="st54">
        <rect class="st27" x="471.69" y="179.52" width="0" height="0" transform="translate(-32.54 201.17) rotate(-23.29)"/>
      </g>
      <g class="st48">
        <rect class="st24" x="471.69" y="179.52" width="0" height="0" transform="translate(-18.62 59.89) rotate(-7.13)"/>
      </g>
      <g class="st46">
        <rect class="st23" x="471.69" y="179.52" width="0" height="0" transform="translate(-28.72 113.85) rotate(-13.36)"/>
      </g>
      <g class="st49">
        <rect class="st25" x="471.69" y="179.52" width="0" height="0" transform="translate(-28.72 113.85) rotate(-13.36)"/>
      </g>
      <g class="st47">
        <rect class="st26" x="471.69" y="179.52" width="0" height="0" transform="translate(-29.46 119.76) rotate(-14.04)"/>
      </g>
      <g class="st45">
        <rect class="st30" x="471.7" y="179.52" width="0" height="0" transform="translate(-11.3 33.11) rotate(-3.97)"/>
      </g>
      <g class="st12">
        <g class="st43">
          <g class="st44">
            <rect class="st29" x="471.69" y="179.52" width="0" height="0" transform="translate(-30.39 128.16) rotate(-15)"/>
          </g>
        </g>
      </g>
      <polygon class="st1" points="471.7 179.52 471.7 179.52 471.69 179.52 471.69 179.52 471.69 179.52 471.7 179.52"/>
      <path class="st2" d="M471.69,179.51,471.7,179.51h0s0,0,0,0h0,0s0,0,0,0h0,0,0s0,0,0,0h0,0,0s0,0,0,0h0s0,0,0,0h0s0,0,0,0c0,0,0,0,0,0h0s0,0,0,0h0s0,0,0,0h0,0,0,0s0,0,0,0h0s0,0,0,0h0,0,0,0,0,0,0,0,0,0,0,0,0,0,0,0,0,0,0,0,0,0s0,0,0,0c0,0,0,0,0,0h0,0,0,0,0s0,0,0,0h0s0,0,0,0h0s0,0,0,0h0s0,0,0,0h0s0,0,0,0h0,0s0,0,0,0h0s0,0,0,0h0s0,0,0,0h0s0,0,0,0h0,0,0s0,0,0,0h0s0,0,0,0h0s0,0,0,0h0s0,0,0,0h0s0,0,0,0h0,0,0,0,0,0,0,0,0,0,0s0,0,0,0h0s0,0,0,0h0s0,0,0,0h0s0,0,0,0c0,0,0,0,0,0h0,0,0,0,0,0s0,0,0,0h0,0,0,0,0,0,0,0,0,0M471.69,179.51,471.69,179.51,471.69,179.51,471.69,179.51,471.69,179.51h0,0ZM471.69,179.51h0M471.69,179.51,471.69,179.51h0s0,0,0,0ZM471.69,179.51,471.69,179.51h0M471.69,179.51,471.69,179.51h0M471.69,179.51h0M471.69,179.51h0M471.69,179.51h0M471.69,179.51h0M471.69,179.51h0M471.69,179.52,471.69,179.52h0M471.69,179.52,471.69,179.52,471.69,179.52,471.69,179.52h0M471.69,179.52,471.69,179.52,471.69,179.52,471.69,179.52,471.69,179.52h0M471.69,179.52,471.69,179.52,471.69,179.52,471.69,179.52,471.69,179.52h0M471.69,179.52,471.69,179.52,471.69,179.52,471.69,179.52,471.69,179.52,471.69,179.52,471.69,179.52h0,0M471.69,179.52,471.69,179.52,471.69,179.52,471.69,179.52,471.69,179.52,471.69,179.52,471.69,179.52,471.69,179.51,471.69,179.51,471.69,179.51,471.69,179.51,471.69,179.51,471.69,179.51,471.69,179.51,471.69,179.51,471.69,179.51h0M471.69,179.51,471.69,179.51,471.69,179.51,471.69,179.51,471.69,179.51,471.69,179.51h0s0,0,0,0ZM471.69,179.51,471.69,179.51,471.69,179.51,471.69,179.51,471.69,179.51,471.69,179.51,471.69,179.51h0s0,0,0,0ZM471.69,179.51,471.69,179.51,471.69,179.51,471.69,179.51,471.69,179.51h0s0,0,0,0ZM471.69,179.51h0s0,0,0,0ZM471.69,179.51,471.69,179.51,471.69,179.51h0M471.69,179.51,471.69,179.51,471.69,179.51,471.69,179.51,471.69,179.51,471.69,179.51h0M471.69,179.51,471.69,179.51h0M471.69,179.51,471.69,179.51,471.69,179.51,471.69,179.51,471.69,179.51h0M471.69,179.51h0M471.69,179.51h0M471.69,179.51h0M471.69,179.51,471.69,179.51h0M471.69,179.51,471.69,179.51h0M471.69,179.51h0M471.69,179.51,471.69,179.51h0M471.69,179.51,471.69,179.51,471.69,179.51,471.69,179.51,471.69,179.51h0M471.69,179.51,471.69,179.51,471.69,179.51h0M471.69,179.51h0M471.69,179.51h0M471.69,179.51,471.69,179.51h0,0M471.69,179.51,471.69,179.51,471.69,179.51h0,0M471.69,179.51h0M471.69,179.51,471.69,179.51h0M471.69,179.51h0,0M471.69,179.51,471.69,179.51h0M471.69,179.51h0M471.69,179.51h0M471.69,179.51,471.69,179.51,471.69,179.51,471.69,179.51h0M471.69,179.51,471.69,179.51,471.69,179.51,471.69,179.51h0M471.69,179.51s0,0,0,0M471.69,179.51,471.69,179.51,471.69,179.51h0,0M471.69,179.51,471.69,179.51,471.69,179.51,471.69,179.51h0M471.69,179.51,471.69,179.51h0M471.69,179.51,471.69,179.51,471.69,179.51h0,0M471.69,179.51,471.69,179.51,471.69,179.51,471.69,179.51h0M471.69,179.51,471.69,179.51,471.69,179.51,471.69,179.51,471.69,179.51,471.69,179.51h0M471.69,179.51,471.69,179.51,471.69,179.51,471.69,179.51,471.69,179.51h0M471.69,179.51,471.69,179.51,471.69,179.51,471.69,179.51,471.69,179.51,471.69,179.51h0M471.69,179.51,471.69,179.51h0M471.69,179.51h0M471.69,179.51h0M471.69,179.51,471.69,179.51,471.69,179.51h0M471.69,179.51h0M471.69,179.51,471.69,179.51,471.69,179.51h0M471.69,179.51,471.69,179.51,471.69,179.51h0M471.69,179.51h0,0ZM471.69,179.51,471.69,179.51,471.69,179.51,471.69,179.51h0M471.69,179.51,471.69,179.51h0M471.69,179.51,471.69,179.51,471.69,179.51,471.69,179.51,471.69,179.51,471.69,179.51,471.69,179.51,471.69,179.51h0M471.69,179.51h0M471.69,179.51h0M471.69,179.51,471.69,179.51,471.69,179.51,471.69,179.51h0M471.69,179.51,471.69,179.51,471.69,179.52,471.69,179.51,471.69,179.51h0M471.69,179.51,471.69,179.51,471.69,179.51,471.69,179.51,471.69,179.51,471.69,179.52,471.69,179.52,471.69,179.52,471.69,179.51h0M471.69,179.52,471.69,179.52h0M471.69,179.52,471.69,179.52,471.69,179.51,471.69,179.51,471.69,179.51h0M471.69,179.51,471.69,179.51,471.69,179.51h0M471.69,179.51,471.69,179.51h0M471.69,179.52,471.69,179.52h0M471.69,179.52,471.69,179.52,471.69,179.52,471.69,179.52,471.69,179.52h0M471.69,179.52,471.69,179.52h0M471.69,179.52,471.69,179.52h0s0,0,0,0ZM471.69,179.52h0s0,0,0,0M471.69,179.52h0s0,0,0,0ZM471.69,179.51,471.69,179.52h0s0,0,0,0c0,0,0,0,0,0M471.69,179.51,471.69,179.51,471.69,179.52,471.69,179.52h0s0,0,0,0M471.69,179.51,471.69,179.52h0s0,0,0,0ZM471.69,179.51,471.69,179.51h0s0,0,0,0M471.69,179.51,471.69,179.51,471.69,179.51,471.69,179.51,471.69,179.51,471.69,179.52h0s0,0,0,0ZM471.69,179.51,471.69,179.52,471.69,179.52,471.69,179.52,471.69,179.52,471.69,179.52,471.69,179.52h0M471.69,179.52,471.69,179.52,471.69,179.52h0M471.69,179.52h0M471.69,179.52h0M471.69,179.52,471.69,179.52h0M471.69,179.52,471.69,179.52h0M471.69,179.52h0M471.69,179.52h0M471.69,179.52,471.69,179.52h0M471.69,179.52,471.69,179.52,471.69,179.52,471.69,179.52,471.69,179.52h0M471.69,179.52,471.69,179.52,471.69,179.52h0M471.69,179.52h0M471.69,179.52,471.69,179.52,471.69,179.52,471.69,179.52,471.69,179.52,471.69,179.52,471.69,179.52,471.69,179.51,471.69,179.52,471.69,179.52h0s0,0,0,0ZM471.69,179.52h0M471.69,179.52,471.69,179.52,471.69,179.52,471.69,179.51,471.69,179.52,471.69,179.51,471.69,179.52,471.69,179.52h0M471.69,179.51h0M471.69,179.52,471.69,179.52h0M471.69,179.51,471.69,179.51,471.69,179.52h0M471.69,179.52,471.69,179.52h0M471.69,179.51,471.69,179.51,471.69,179.52,471.69,179.51,471.69,179.51,471.69,179.51,471.69,179.51,471.69,179.51,471.69,179.52,471.69,179.52,471.69,179.51h0M471.69,179.52h0s0,0,0,0ZM471.69,179.51,471.69,179.52,471.69,179.51h0M471.69,179.52,471.69,179.51,471.69,179.51,471.69,179.51h0M471.69,179.52h0s0,0,0,0ZM471.69,179.51h0M471.69,179.52,471.69,179.51,471.69,179.51,471.69,179.51h0M471.69,179.51,471.69,179.51h0M471.69,179.51h0M471.69,179.51h0M471.69,179.51,471.69,179.51,471.69,179.51,471.69,179.51,471.69,179.51,471.69,179.51h0M471.69,179.51h0M471.69,179.51,471.7,179.51h0,0ZM471.7,179.51,471.7,179.52h0s0,0,0,0ZM471.7,179.51h0s0,0,0,0M471.69,179.51,471.69,179.51,471.69,179.51,471.69,179.51h0M471.69,179.51,471.69,179.51,471.69,179.51h0M471.69,179.51,471.69,179.51,471.69,179.51,471.69,179.51,471.69,179.51,471.69,179.51,471.69,179.51,471.69,179.51,471.7,179.51,471.7,179.51,471.7,179.51,471.7,179.52,471.7,179.51,471.7,179.52,471.7,179.51,471.7,179.51,471.7,179.51h0s0,0,0,0ZM471.7,179.51,471.7,179.51h0M471.7,179.52h0M471.7,179.52,471.7,179.52,471.7,179.52h0M471.7,179.52,471.7,179.52,471.7,179.52,471.7,179.52,471.7,179.52,471.7,179.52,471.7,179.52,471.7,179.52,471.7,179.52,471.7,179.51h0M471.7,179.52,471.7,179.52,471.7,179.52,471.7,179.51h0s0,0,0,0M471.7,179.51,471.7,179.52h0ZM471.7,179.51h0s0,0,0,0ZM471.7,179.52,471.7,179.52,471.7,179.52,471.7,179.52h0,0M471.7,179.52,471.7,179.52,471.7,179.52h0,0M471.7,179.52,471.7,179.52,471.7,179.51h0,0s0,0,0,0ZM471.7,179.51,471.7,179.51,471.7,179.52h0,0M471.7,179.52,471.7,179.51h0M471.7,179.51,471.7,179.51h0M471.7,179.51,471.7,179.51,471.7,179.51h0M471.7,179.51,471.7,179.51,471.7,179.52h0s0,0,0,0ZM471.7,179.52,471.7,179.51,471.7,179.51,471.7,179.52,471.7,179.51,471.7,179.51,471.7,179.52h0M471.7,179.51,471.7,179.51,471.7,179.52h0s0,0,0,0ZM471.7,179.51,471.7,179.51,471.7,179.51h0M471.7,179.51,471.7,179.52,471.7,179.52h0M471.7,179.51,471.7,179.51,471.7,179.51,471.7,179.51h0s0,0,0,0ZM471.7,179.51h0M471.7,179.51,471.7,179.51h0s0,0,0,0ZM471.7,179.52,471.7,179.52,471.7,179.51h0M471.7,179.51,471.7,179.51,471.7,179.51,471.7,179.52,471.7,179.52,471.7,179.51,471.7,179.51h0M471.7,179.51,471.7,179.51,471.7,179.51,471.7,179.51h0M471.7,179.51,471.7,179.51h0M471.7,179.51h0M471.7,179.51,471.7,179.51,471.7,179.51,471.7,179.51h0M471.7,179.51h0,0M471.7,179.51h0,0M471.7,179.51,471.7,179.51,471.7,179.51h0M471.7,179.51,471.7,179.51,471.7,179.51h0M471.7,179.51,471.7,179.51,471.7,179.51h0M471.7,179.51,471.7,179.51,471.7,179.51,471.7,179.51h0M471.7,179.51,471.7,179.51h0M471.7,179.51h0M471.7,179.51h0M471.7,179.51,471.7,179.51h0M471.7,179.51h0M471.7,179.51,471.7,179.51h0M471.7,179.51,471.7,179.51h0M471.7,179.51,471.7,179.51,471.7,179.51h0M471.7,179.51h0M471.7,179.51,471.7,179.52h0M471.7,179.52h0s0,0,0,0ZM471.7,179.51,471.7,179.51,471.7,179.51h0M471.7,179.51,471.7,179.51,471.7,179.51,471.7,179.51h0M471.7,179.51,471.7,179.51h0M471.7,179.51h0M471.7,179.51,471.7,179.51h0M471.7,179.51h0M471.7,179.51h0M471.7,179.51h0M471.7,179.51h0M471.7,179.51,471.7,179.51h0M471.7,179.51h0M471.7,179.51,471.7,179.51,471.7,179.51h0M471.7,179.51h0M471.7,179.51,471.7,179.51h0M471.7,179.51,471.7,179.51,471.7,179.51h0M471.7,179.51h0M471.7,179.51h0M471.7,179.51h0M471.7,179.51h0M471.7,179.51,471.7,179.51,471.7,179.51h0M471.7,179.51,471.7,179.51h0M471.7,179.51h0,0ZM471.7,179.51,471.7,179.51h0,0ZM471.7,179.51h0M471.7,179.51h0M471.7,179.51h0M471.7,179.51h0M471.7,179.51h0M471.7,179.51h0M471.7,179.51h0M471.7,179.51h0M471.7,179.51h0M471.7,179.51,471.7,179.51h0M471.7,179.51,471.7,179.51,471.7,179.51,471.7,179.51h0M471.7,179.51h0M471.7,179.51,471.7,179.51,471.7,179.51,471.7,179.51h0M471.7,179.51h0M471.7,179.51h0M471.7,179.51,471.7,179.51h0M471.7,179.51,471.7,179.51h0M471.7,179.51h0M471.7,179.51h0M471.7,179.51,471.7,179.51h0M471.7,179.51,471.7,179.51,471.7,179.51h0M471.7,179.51,471.7,179.51,471.7,179.51,471.7,179.51,471.7,179.51,471.7,179.51,471.7,179.51,471.7,179.51,471.7,179.51,471.7,179.51,471.7,179.51,471.7,179.51,471.7,179.51,471.7,179.51h0M471.7,179.51h0M471.7,179.51,471.7,179.51h0M471.7,179.51,471.7,179.51,471.7,179.51,471.7,179.51,471.7,179.51,471.7,179.51,471.7,179.51,471.7,179.51h0M471.7,179.51h0M471.7,179.51,471.7,179.51,471.7,179.51,471.7,179.51,471.7,179.51,471.7,179.51,471.7,179.51h0s0,0,0,0ZM471.7,179.51h0s0,0,0,0M471.7,179.51,471.7,179.51,471.7,179.51,471.7,179.51,471.7,179.51h0M471.7,179.51h0M471.7,179.51,471.7,179.51,471.7,179.51,471.7,179.51,471.7,179.51,471.7,179.51,471.7,179.51,471.7,179.51,471.7,179.51,471.7,179.51,471.7,179.51,471.7,179.51,471.7,179.51h0M471.7,179.51h0M471.7,179.52h0s0,0,0,0ZM471.7,179.52,471.7,179.52,471.7,179.52,471.7,179.52h0M471.7,179.51s0,0,0,0M471.7,179.51,471.7,179.51h0M471.7,179.51,471.7,179.51,471.7,179.51,471.7,179.51,471.7,179.51,471.7,179.51h0M471.7,179.51h0M471.7,179.51,471.7,179.51,471.7,179.51,471.7,179.51,471.7,179.51,471.7,179.51,471.7,179.51,471.7,179.51,471.7,179.51h0M471.7,179.51,471.7,179.51h0s0,0,0,0ZM471.7,179.51h0s0,0,0,0ZM471.7,179.51h0s0,0,0,0ZM471.7,179.51,471.7,179.51,471.7,179.51h0M471.7,179.51,471.7,179.51,471.7,179.51h0M471.7,179.51,471.7,179.51,471.7,179.51h0M471.7,179.51,471.7,179.51h0M471.7,179.51,471.7,179.51h0M471.7,179.51,471.7,179.51h0M471.7,179.51h0,0ZM471.7,179.51h0M471.7,179.51h0,0ZM471.7,179.51,471.7,179.51,471.7,179.51h0M471.7,179.51h0M471.7,179.51,471.7,179.51h0M471.7,179.51h0M471.7,179.51h0M471.7,179.51,471.7,179.51,471.7,179.51,471.7,179.51h0"/>
      <path class="st1" d="M471.69,179.52h0,0,0,0s0,0,0,0h0s0,0,0,0h0s0,0,0,0h0ZM471.69,179.52"/>
      <polygon class="st1" points="471.69 179.52 471.69 179.52 471.69 179.52 471.69 179.52 471.69 179.52 471.69 179.52 471.69 179.52 471.69 179.52 471.69 179.52 471.69 179.52 471.69 179.52 471.69 179.52"/>
    </g>
  </g>
</svg>