<?xml version="1.0" encoding="UTF-8"?>
<svg id="Layer_1" xmlns="http://www.w3.org/2000/svg" xmlns:xlink="http://www.w3.org/1999/xlink" version="1.1" viewBox="0 0 473.68 459.37">
  <!-- Generator: Adobe Illustrator 29.7.1, SVG Export Plug-In . SVG Version: 2.1.1 Build 8)  -->
  <defs>
    <style>
      .st0 {
        fill: none;
      }

      .st1 {
        fill: #ecebeb;
      }

      .st1, .st2 {
        fill-rule: evenodd;
      }

      .st3 {
        fill: #fff;
      }

      .st2 {
        fill: #f2f0ef;
      }

      .st4 {
        clip-path: url(#clippath);
      }
    </style>
    <clipPath id="clippath">
      <path class="st0" d="M62.37,157.64c-39.79,95.29,5.2,204.79,100.49,244.59,95.29,39.79,204.79-5.2,244.59-100.49,39.79-95.29-5.2-204.79-100.49-244.59-23.55-9.83-47.95-14.49-71.97-14.49-73.17,0-142.66,43.23-172.61,114.98"/>
    </clipPath>
  </defs>
  <path class="st3" d="M306.95,57.15c95.29,39.79,140.28,149.3,100.49,244.59-39.79,95.29-149.3,140.28-244.59,100.49C67.56,362.43,22.57,252.93,62.36,157.64,102.15,62.35,211.66,17.36,306.95,57.15"/>
  <path class="st2" d="M259.97,334.91c-3.15,1.48-6.25,3.05-9.43,4.41-3.38,1.45-5.37,3.31-2.76,7.14-.45,1.49-.91,2.98-1.37,4.47-.07.62-.14,1.24-.21,1.86-.32.25-.65.49-.97.74-1.04.84-2.08,1.68-3.12,2.51.81,1,1.63,2,2.43,2.99.36-.22.72-.45,1.07-.7.24.33.51.65.78.94,0,0,0,0,0,0,1.17.19,2.34.39,3.51.58,1.28-1.08,2.55-2.17,3.82-3.25.03,0,.05-.02.08-.03l.1-.13c1.72-2.45,2.93-5.88,5.25-7.16,7.3-4.03,7.81-9.14.81-14.4M251.17,348.73c.27.34.53.68.79,1.02-.26-.35-.52-.69-.79-1.02"/>
  <path class="st2" d="M355.81,175.35c1.14,1.49,2.27,2.97,3.56,4.65,6.03-3.89,3.01-7.75.84-11.56-.3-.8-.39-2.08-.92-2.32-2.46-1.14-5.05-1.99-7.58-2.94.16,2.38-.08,4.9.63,7.1.59,1.88,2.27,3.4,3.47,5.07"/>
  <path class="st2" d="M339.02,192.92c-.32-1.35-3.05-2.09-4.66-3.12-1.06,3.41-2.12,6.82-3.54,11.42,7.35-.86,9.2-3.91,8.2-8.3"/>
  <path class="st2" d="M331.39,347.05c-.99-3.13-1.98-6.26-2.99-9.39.76-2.37,1.52-4.74,2.26-7.11-.31-4.44-.28-8.95-1.11-13.28-.4-2.17-2.41-4.03-3.69-6.04h0c-.51-.67-1.02-1.33-1.54-2,.82-1.68,1.64-3.36,2.45-5.04.37-2.12,1.52-4.51.93-6.29-1.22-3.64-3.37-6.95-5.14-10.4.88-.8,1.74-1.6,2.62-2.41,1.6-2.82,3.21-5.64,4.82-8.47,1.5.02,2.97.03,2.97.04.38-5.89.7-10.72.97-14.6-3.57,1.1-7.28,2.23-10.99,3.37-.07.59-.14,1.18-.22,1.76-.03-.01-.05-.03-.08-.05-1.98-1.15-3.96-2.3-5.93-3.46-.54-.11-1.06-.2-1.61-.29-1.2-.14-2.41-.27-3.62-.4-.33.27-.67.54-.99.81.32-.27.66-.54.99-.81,1.21.13,2.42.26,3.62.4-.32-1.86-.64-3.7-.97-5.55-.03-.21,0-.49-.12-.62-.28-.28-.63-.49-.96-.73-.24-.29-.49-.56-.77-.82-.26-.34-.51-.67-.76-1.02-.16-.37-.32-.75-.51-1.11.59-.41,1.18-.81,1.79-1.23,8.16-.07,16.82-10.01,15.61-17.94-.63-.07-1.26-.15-1.9-.23-.59-.06-1.2-.13-1.79-.19.33-.28.68-.57,1.02-.86-.34.28-.69.57-1.02.86.59.06,1.2.13,1.8.19.63.08,1.26.15,1.89.23-.21-.35-.42-.69-.64-1.03.78-1.75,1.58-3.48,2.37-5.22-.33-2.51-.65-5.01-.98-7.52,2.45-3.18,4.88-6.37,7.33-9.55.04-.59.1-1.17.14-1.75v.02c.32-.23.65-.46.98-.67-.27-.4-.55-.79-.82-1.18-.26-.39-.53-.77-.81-1.16-2.3-.8-4.61-1.61-6.91-2.41-.85-.45-1.69-.89-2.55-1.34-.59-.1-1.18-.2-1.78-.29-1.09-2.71-1.77-5.7-3.37-8.05-2.08-3.05-4.87-5.59-7.35-8.34-.42-1.83-.83-3.67-1.23-5.49-1.77-.24-3.54-.49-5.31-.73-2.98-1.13-4.61-.44-4.03,3.2-.94.27-1.87.55-2.81.81-2.61-.69-5.21-1.39-7.83-2.1-.92.21-1.85.4-2.77.61-.14-1.55-.28-3.1-.41-4.64-.22-.36-.44-.71-.65-1.07.63-.54,1.26-1.09,1.88-1.63.93-.2,1.86-.4,2.79-.6.19-1.83.4-3.64.6-5.46-.19-.95-.39-1.89-.58-2.84.47-1.4,1.19-2.79,1.28-4.22.03-.48-1.57-1.07-2.41-1.61h0c-.54-.64-1.1-1.27-1.65-1.91-.82-.43-1.65-.86-2.47-1.29-.33.27-.66.53-.99.81.33-.27.66-.54.99-.81-.27-.34-.52-.68-.78-1.02-2.3-.9-4.61-1.8-6.91-2.7-.15-.94-.31-1.88-.48-2.82,2.81-1.23,5.61-2.46,8.42-3.69,2.64.24,5.27.48,7.99.72,4.63-8.13,4.08-12.78-2.32-18.71h0c-.46-.62-.93-1.25-1.4-1.88-1.06-2.02-2.11-4.04-3.16-6.06.35-.25.67-.52.98-.81-.44-1.26-.86-2.52-1.3-3.78-.23-.99-.45-1.99-.69-2.97-.51-.64-1.04-1.27-1.56-1.89-.51-.63-1.02-1.26-1.53-1.89-2.58-.66-5.15-1.32-7.72-1.99-.37.18-.73.37-1.08.59-2.68-3.06-5.64-3.67-8.94-1.04-1.4-1.07-2.8-2.14-4.2-3.21-.47-.72-.94-1.44-1.42-2.16.71-3.48-.64-3.95-3.34-2.44-3.12-8.9-4.68-9.88-13.24-6.75-2.75,1-5.03,3.42-7.51,5.2-4.21-5.47-9.42-1.29-14.16-1.56-.68.5-1.34.98-2,1.48-.21,1.89-.41,3.77-.63,5.67.22-1.9.42-3.78.62-5.67.67-.5,1.33-.99,2.01-1.48-.86-6.84-4.66-10.36-11.33-10.59.74-1.18,1.48-2.35,2.22-3.54,3.69-1.47,7.38-2.93,11.07-4.4,1.19-.54,2.36-1.09,3.54-1.63-.15-.18-.29-.35-.43-.53.15.18.29.35.43.53.12.15.24.29.36.44.32-.27.66-.53.98-.79.33-.25.65-.48.97-.72-.51-.16-1.02-.31-1.54-.46-.32-.28-.65-.57-.98-.85-.32.21-.64.43-.94.65-.34.3-.69.6-1.04.92.34-.31.69-.61,1.03-.91-.87-.4-1.75-.8-2.61-1.2,0,0,0,0,0,0,.87.4,1.75.8,2.62,1.2.31-.23.63-.45.95-.66-.23-.36-.46-.71-.71-1.06,3.43-3.92,6.87-7.85,10.31-11.78.59.08,1.18.15,1.77.22.27.34.54.69.81,1.03.6.08,1.18.15,1.76.22-.26-.35-.53-.71-.8-1.06-.28-.4-.56-.79-.84-1.19-.6-.07-1.19-.15-1.79-.23-.54.03-1.08.07-1.61.1-3.7.06-7.37.12-11.07.19-1.75-.13-3.49-.26-5.24-.39-.69.46-1.38.92-2.08,1.38-.58-.05-1.17-.1-1.76-.15-.52-.21-1.05-.43-1.57-.64-.18-.32-.44-.51-.8-.55-1.21-.05-2.41-.11-3.62-.16l-.54.27-.43.45c-.39,0-.76.12-1.08.38h0c-.58.02-1.18.03-1.75.05-1.16-.22-2.34-.43-3.51-.65-1.52.11-3.04.22-4.57.33-1.01.18-2.02.36-3.03.54-.5.11-1,.23-1.5.34l-.54.27-.4.46c-.36.3-.72.6-1.07.9-.36.13-.7.29-1.02.5-.64-.1-1.27-.19-1.91-.29-.81-.26-1.61-.52-2.42-.77-.93.14-1.88.28-2.81.42-.42,0-.82.09-1.18.3-.52.11-1.02.22-1.54.34-.4.16-.8.31-1.21.47-.55.06-1.08.13-1.61.19l-.55.25-.48.4c-.55.03-1.11.06-1.67.1-.43.02-.8.18-1.13.47-.69.48-1.37.96-2.05,1.44-1.57.74-3.15,1.49-4.71,2.24-1.48.23-2.96.46-4.44.68-.98.09-1.96.18-2.95.27-.5.06-1.01.13-1.51.19,0,0,0,0,0,0,0,0,0,0-.01-.01-1.01.78-2.03,1.57-3.06,2.35-.7.48-1.4.98-2.1,1.46-1.72.52-3.47.93-5.13,1.58-3.33,1.29-6.61,2.7-9.9,4.06-1.47.51-2.95,1.03-4.43,1.54.2.56.39,1.11.58,1.67,1.46-.16,2.92-.31,4.38-.47-1.46.16-2.92.31-4.38.47-.44.89-.89,1.79-1.34,2.69-.36.24-.72.49-1.07.73-1.4,1.06-2.8,2.12-4.19,3.18h0c1.39-1.06,2.79-2.12,4.2-3.18.36-.24.72-.49,1.07-.73.44-.9.9-1.8,1.34-2.69-.19-.56-.38-1.11-.58-1.67-1.35.74-2.7,1.48-4.06,2.21-.35.23-.7.47-1.05.7-.37.23-.73.46-1.1.69l-.48.05-.3.4c-1.94,1.19-3.88,2.37-5.82,3.56-1.35,1.05-2.7,2.1-4.06,3.15.77,1,1.53,2,2.29,3-.1.61-.2,1.21-.31,1.81.43-.3.87-.6,1.3-.9.26-.18.49-.38.73-.59,0,0,0,0,0,0,.85-.14,1.73-.29,2.59-.43-.31.83-.61,1.67-.92,2.5-3.11,3.63-6.2,7.27-9.3,10.9-1.19,1.4-2.38,2.8-3.58,4.21-.87.83-1.73,1.67-2.59,2.5.74,1.01,1.48,2.01,2.21,3.01,1.14.76,2.27,1.51,3.4,2.28-1.13-.76-2.26-1.52-3.4-2.27-.73-1-1.47-2.01-2.21-3.01-3.38,3.09-7.27,5.78-10,9.39-2.4,3.17-3.51,7.36-5.18,11.1.1.89.2,1.79.29,2.67-.97,3.68-1.96,7.36-2.93,11.04-.26.22-.48.47-.67.75-.16.63-.32,1.26-.48,1.88-.75.99-1.49,1.99-2.24,2.98-4.82,1.46-7.87,8.05-6.42,13.22,3.04.15,5.95.29,8.85.43.38,1.89.76,3.79,1.14,5.68.89.42,1.77.84,2.66,1.26,3.41-3.91,6.82-7.82,10.22-11.72-3.4,3.91-6.81,7.82-10.22,11.72l-.22.08s.22-.08.22-.08c-.88-.42-1.77-.84-2.66-1.26,0,0,0,0,0,0,0,0-.02,0-.03-.01h0s0,0,0,0c0,.02,0,.03,0,.05-.07.62-.15,1.24-.23,1.85.08-.62.16-1.23.23-1.85-.98.13-1.96.25-2.94.38-.48.7-.95,1.4-1.43,2.1-.1-.08-.17-.17-.32-.21-.45.88-.88,1.75-1.33,2.62.79,1,1.57,1.99,2.36,2.99,1.19.16,2.39.34,3.59.51.32-.27.66-.54.98-.8-.52-.68-1.04-1.36-1.56-2.03.91-.2,1.82-.38,2.74-.57.09-.64.17-1.26.25-1.89-.08.63-.16,1.25-.24,1.89-.92.19-1.83.37-2.74.57.52.67,1.04,1.35,1.56,2.03-.32.27-.66.53-.98.8.59.08,1.18.15,1.77.23-.26-.35-.52-.69-.78-1.03.25.35.52.69.78,1.03.86.41,1.71.82,2.57,1.24.32-.26.63-.53.95-.79.83.33,1.65.67,2.46,1,.35-.27.7-.54,1.05-.8.36-.15.72-.32,1.06-.53,1.18.16,2.37.31,3.55.48l.02-.05c.13.33.26.65.42.96-.08,1.83-.16,3.67-.24,5.5.99-.81,1.99-1.61,2.97-2.42.74-1.15,1.48-2.31,2.22-3.47-.74,1.16-1.48,2.32-2.21,3.47-.99.81-1.98,1.62-2.97,2.42.16.93.32,1.86.48,2.8-.28,2.32-1.5,5.17-.64,6.87,1.99,3.92,1.46,6.46-2.05,8.64l.31.1c.86.72,1.72,1.45,2.58,2.17-.86-.72-1.72-1.45-2.59-2.17,0,0-.3-.1-.3-.1-1.01-.22-2.03-.43-3.06-.65,0,0,0,0-.01.01-1.38.58-2.75,1.16-4.13,1.74-.68.51-1.36,1.01-2.04,1.51-.31.15-.6.33-.86.53-.29-.26-.6-.49-.91-.71-1.37-1.12-2.73-2.24-4.11-3.37-3.2,2.12-6.41,4.22-9.62,6.33-4.01,5.07-6.92,10.28-2.02,16.51-.01,3.93.47,7.32,5.69,5.58.24.3.47.62.68.95l.21-.24c.57.1,1.14.2,1.72.29-.58-.1-1.14-.2-1.72-.29,0,0-.21.23-.21.23.26.86.51,1.73.77,2.59,2.27-1.18,4.53-2.35,6.8-3.53,1.49.53,2.99,1.06,4.47,1.59,2.08,2.01,4.15,4.03,6.24,6.04.43,1.31.87,2.61,1.31,3.91-.45,1.48-.89,2.97-1.34,4.46,0,0,0,0-.01.01,0,0,0,0,0,0-.02.02-.48.4-.48.4l-.5.41c1.39,2.85,1.12,8.3,6.71,4.53.93-.19,1.85-.38,2.76-.58,1.68,2.94,3.35,5.89,5.02,8.83,1.05,5.08,8.79,10.72,14.42,10.52.83.35,1.66.71,2.49,1.05l.12-.04.49-.4s-.49.4-.49.41c0,0-.12.04-.12.04-.09,1.19-.18,2.39-.26,3.58.21.38.45.72.74,1.03.6.12,1.19.24,1.78.37,4.63,5.41,6.56-.69,8.84-2.53-.1-2.75.41-5.05,1.1-7.3.49-1.57,1.23-3.05,1.86-4.57.55-.62,1.12-1.23,1.69-1.86,2.52-.86,5.05-1.72,7.57-2.58,2.47-.37,4.93-.72,7.39-1.08.99-.79,1.98-1.57,2.97-2.35-.66-2.28-1.33-4.56-2-6.84-.25-.33-.49-.67-.73-1-1.13-1.3,2.06-5.93-3.03-4.2.03-.59.06-1.17.09-1.77.67-.54,1.33-1.07,2.01-1.62.32-.28.66-.56.99-.84.32-.24.63-.51.92-.8.34-.22.69-.44,1.04-.66,1.59-.8,3.17-1.59,4.75-2.37.83-5.03,1.71-10.04,2.42-15.08.23-1.65-.01-3.38-.05-5.07.74-1.15,1.48-2.31,2.21-3.46,1.23-.44,2.44-.87,3.66-1.3h0c.58.63,1.15,1.26,1.73,1.89.06-.58.11-1.16.17-1.74h0c-.06.58-.11,1.16-.17,1.74.54.68,1.07,1.36,1.59,2.04.21.33.45.65.72.94,1.16.18,2.33.36,3.5.55.35-.23.69-.49,1.02-.77.33-.28.67-.56,1.01-.84.34-.24.66-.5.97-.78.32-.22.63-.44.95-.66,1.44.46,2.91.93,4.36,1.4.28.31.57.61.86.92,2.23,1.52,4.46,3.04,6.69,4.57.25.35.51.68.8,1,.25.34.51.68.77,1.03.32-.28.64-.56.95-.85-.31.28-.64.57-.95.85.42,1.3.83,2.6,1.24,3.9h0c-.3.28-.58.56-.88.85-.4.87-.81,1.74-1.2,2.61.52.68,1.04,1.38,1.56,2.06.26.34.51.69.77,1.03,2.33,3.73,4.49,4.14,5.02-.85.31-2.92-.71-5.97-1.13-8.96-.35.28-.7.55-1.05.83.35-.27.7-.55,1.05-.83.72-1.14,1.44-2.28,2.17-3.42.16-1.22.32-2.44.46-3.65h0c.79-1.75,1.6-3.51,2.39-5.25,4.14-4.32,8.34-6.7,14.33-2.8,2.12,1.38,5.57.62,8.41.84,1.1,2.92,2.21,5.84,3.32,8.77h0c-.1,1.24-.2,2.47-.3,3.72.86.98,1.71,1.97,2.58,2.95.44.72.86,1.45,1.31,2.17,1.6,9.72,8.32,13.13,16.06,8.16.71-.45,1.46-.82,2.2-1.23,1.85.64,5.25,1.99,5.33,1.81,2.21-5.1,5.35-1.68,8.13-1.11,1.3,1.68,2.6,3.37,3.9,5.05,1.17.14,2.36.28,3.53.41.51.67,1.02,1.34,1.54,2.01-.51-.67-1.02-1.34-1.54-2.01-1.17-.14-2.36-.28-3.53-.42-1,.81-1.98,1.62-2.97,2.43-4.64-1.3-2.68,2.34-3.01,4.27.14.39.34.74.59,1.06.14.37.31.73.5,1.08.02.59.03,1.18.05,1.77.13.3.3.56.49.81l-.4.35s-.44.32-.43.31c-.37.29-.74.58-1.11.87-.6.55-1.2,1.08-1.79,1.62-5.71,1.16-6.03,6.02-6.83,10.55.35.38.7.76,1.06,1.14h0c-.35-.38-.7-.77-1.05-1.14-9.29-.82-4.86,9.59-9.85,11.94,2.03,2.66,3.72,4.87,5.42,7.08,1.77,5.19,3.53,10.38,5.29,15.57l.19-.07c.88-.18,1.75-.36,2.63-.53-.88.18-1.74.36-2.63.54,0,0-.18.06-.18.06-3.58,1.63-7.16,3.26-12.25,5.58,4.57,1.97,7.33,3.18,10.1,4.37-1.86,1.98-3.74,3.95-5.62,5.92.54.52,1.07,1.04,1.6,1.56,2.33-1.42,8.77,1.56,4.95-6.42.99-.84,1.97-1.66,2.95-2.5,1.2.2,2.4.4,3.59.6,6.02-2.68,12.04-5.35,18.05-8.04h0c.77.42,1.55.84,2.34,1.26,1.1,1.86,2.21,3.72,3.32,5.58,1.85,1.93,3.71,3.86,5.56,5.78.18.9.37,1.79.55,2.68.34-.27.67-.55,1-.82-.34.27-.66.55-1,.82.24.36.47.72.71,1.09,1.01,1.95,2.01,3.9,3.03,5.86-1.33,1.09-2.66,2.18-3.99,3.28l-.51.37-.48.41c-.7,1.2-1.41,2.4-2.12,3.59-.53,1.44-1.04,2.88-1.56,4.32-.42,1.54-.82,3.09-1.24,4.63l-.13-.16c-.67.55-1.33,1.11-1.99,1.66.26.34.51.68.78,1.03-.27-.34-.52-.68-.78-1.03.66-.55,1.32-1.11,1.99-1.66-.26-.32-.52-.65-.79-.97-.85-.43-1.71-.84-2.56-1.27-.28-.34-.55-.69-.83-1.04-.24-.3-.49-.6-.73-.9-1.02,3.57-2.06,7.13-3.09,10.68,1.13.77,2.24,1.53,3.36,2.3-.21,1.83-.41,3.64-.62,5.47l.15.03c.09.97.18,1.92.28,2.89-.06.64-.12,1.27-.19,1.91l.23-.25s-.23.25-.22.25c-.31.26-.61.51-.9.79l-.45.34-.45.38c-.39.88-.78,1.76-1.18,2.63,1.17,1.44,2.21,3.06,3.55,4.3,2.65,2.46,5.58,6.71,8.23,6.57,3.19-.16,6.2-4.11,9.29-6.42,3.36-.49,6.73-1,10.08-1.5,5.03,2.17,8.88,1.01,11.23-4.29-.1-1.55-.19-3.1-.29-4.64-.51-.72-1.01-1.43-1.51-2.15.5.72,1,1.43,1.51,2.15.09,1.55.19,3.1.29,4.65,3.66-4,7.29-8.01,11.3-12.4-2.47-1.46-4.68-2.77-6.89-4.09M87.45,176.68c.07.13.12.28.12.47,0-.19-.05-.33-.12-.47M292.65,301.66c.26.34.53.69.78,1.03,1.06,1.36,2.1,2.72,3.14,4.08-1.04-1.36-2.08-2.72-3.14-4.08-.26-.35-.52-.69-.78-1.03M225.97,197.71c.19-1.29.38-2.58.57-3.87h0c-.19,1.3-.38,2.58-.57,3.87M95.87,215.4c.32-.26.63-.52.95-.78.53.67,1.07,1.33,1.6,1.99-.53-.66-1.07-1.32-1.61-1.98-.31.25-.63.51-.94.77M301.28,199.52c-2.17-1.39-3.88-2.48-5.58-3.56.07-.61.15-1.23.22-1.84-.07.61-.14,1.22-.22,1.84,1.7,1.09,3.41,2.17,5.58,3.56M306.07,184.17c.59.08,1.19.15,1.78.24-.59-.09-1.19-.16-1.78-.24M261.03,230.85c-.34.26-.66.52-.99.79.33-.27.65-.53.99-.8.27.33.53.68.79,1.01-.26-.34-.52-.68-.79-1M241.62,203.35h0c-.27-.36-.54-.73-.81-1.09.27.37.54.73.81,1.09M241.23,206.99c-.39-.49-.77-.98-1.16-1.46.39.49.77.97,1.16,1.46h0ZM158.68,234.21h0c.21-1.85.4-3.71.61-5.57-.21,1.86-.4,3.72-.61,5.57M155.24,248.58c-.35.25-.69.5-1.02.77v.17s0-.17,0-.17c.34-.27.68-.52,1.03-.77M132.01,254.21h0c1.01-.88,2.02-1.6,3.02-2.09-1,.49-2,1.21-3.02,2.09M119.52,212.8c-1.24-1.69-2.47-3.39-3.72-5.08,0,0,0,0,0,0,1.24,1.7,2.48,3.39,3.72,5.07.28.3.56.61.82.93-.26-.32-.54-.63-.83-.93M106.24,146.84c1.65-.52,3.31-1.04,5.25-1.66-1.94.62-3.59,1.14-5.25,1.66h0ZM142.03,88.01c.6.06,1.2.13,1.8.18-.6-.06-1.19-.12-1.8-.18-1.6.73-3.21,1.46-4.81,2.19,1.6-.73,3.21-1.46,4.8-2.19M181.88,70.49c-.33.24-.65.49-.97.74.32-.25.64-.5.97-.74M205.86,65.95h0c-.2.17-.42.34-.62.51.21-.17.42-.34.62-.51-.58-.08-1.18-.15-1.76-.23.26.34.53.67.78,1.02-.26-.34-.52-.67-.78-1.02.57.08,1.17.15,1.76.23M257.83,220.21c0-2.8-.02-5.59-.03-8.39.01,2.8.02,5.6.03,8.39ZM153.48,240.08h0c.26.34.53.68.8,1.03-.27-.34-.53-.68-.8-1.03M146.48,254.12c-.27-.35-.53-.71-.8-1.06.27.36.54.71.8,1.06M143.25,258.38h0c-.31.27-.64.56-.96.84-.33.27-.66.55-1,.82.34-.27.66-.55,1-.83.32-.27.64-.56.96-.83-.17-.95-.32-1.9-.49-2.85.16.95.32,1.9.49,2.85M127.74,244.4h0c.93-.2,1.84-.4,2.76-.59-.91.19-1.83.39-2.76.59M183.19,82.88c.2.88.39,1.76.6,2.64-.4.91-.81,1.81-1.21,2.72.4-.9.8-1.81,1.2-2.71-.2-.88-.4-1.77-.6-2.65M272.88,131.3c-.5.41-1.01.81-1.51,1.22.51-.41,1.02-.82,1.53-1.24,0,0-.01.01-.02.02M208.28,155.55c-.27-.34-.53-.68-.78-1.02-.27-.35-.53-.71-.8-1.06h0c.27.35.54.7.8,1.06.25.34.52.68.78,1.02h0ZM192.74,196.48c-.13,1.22-.27,2.44-.4,3.66.13-1.22.27-2.44.4-3.66ZM137.17,256.74s0,0,0,0c.76.1,1.52.2,2.28.29-.76-.1-1.52-.19-2.28-.29M142.32,253.18c-.27-.25-.54-.41-.81-.61.27.2.55.36.81.61M122.35,195.36c-.22-.35-.44-.7-.68-1.05.23.35.46.7.68,1.05,0,2.83,0,5.64,0,8.46,0-2.82,0-5.63,0-8.46M261.19,205.73c-.33.27-.66.53-.98.8.32-.26.65-.53.98-.8.25.33.47.68.71,1.02-.24-.34-.46-.68-.71-1.02M271.1,182.73h0c-.93-.31-1.87-.62-2.81-.93.94.31,1.88.62,2.81.93M261.2,205.73h0c.31-.26.62-.52.92-.78-.3.26-.61.52-.92.78M271.99,158.65c-.66.54-1.33,1.09-1.98,1.62.65-.54,1.32-1.08,1.98-1.62M206.69,153.46c.65-.54,1.3-1.08,1.94-1.62h0c-.65.54-1.29,1.08-1.94,1.62M176.76,131.26h0c.26.34.52.68.78,1.03-.26-.34-.52-.68-.78-1.03M136.8,220.39c.34-.28.66-.54.99-.81-.33.27-.65.53-.99.81ZM141.9,189.57l.24-.17c-.26-.31-.52-.63-.77-.95,0,0,0,0,0,0,.25.32.5.64.77.95,0,0-.24.17-.23.17.19,1.51.39,3.03.59,4.53-.2-1.51-.4-3.02-.6-4.53M128.86,148.7s-.04-.01-.08-.02l.08.02c.41.63.84,1.26,1.27,1.89.59.73,1.18,1.47,1.77,2.19-.58-.73-1.18-1.46-1.77-2.19-.43-.63-.85-1.26-1.27-1.89M130.56,157.27c.73,1.02,1.47,2.04,2.2,3.05-.74-1.01-1.47-2.04-2.2-3.05ZM142.08,166.1c.94-.19,1.88-.39,2.8-.57-.93.19-1.86.38-2.8.58-.52-.68-1.03-1.36-1.55-2.04.52.68,1.03,1.36,1.55,2.03M146.41,167.6h0c-.07.61-.13,1.21-.2,1.81-.4.89-.79,1.77-1.19,2.66.4-.89.79-1.77,1.19-2.66.07-.6.13-1.21.2-1.81M142.88,167.15s0-.01,0-.01h.02c.25.36.51.7.77,1.04-.26-.34-.52-.68-.79-1.03M147.23,168.61c-.34.26-.67.53-1,.8.26.34.52.69.79,1.03-.27-.35-.53-.69-.79-1.03.34-.26.67-.53,1-.8-.28-.35-.54-.68-.81-1.03h0c.35-.27.69-.53,1.05-.81-.36.27-.69.54-1.04.81.27.34.53.68.81,1.03M133.41,163.19s0,0,0,0c.66-.53,1.32-1.06,1.98-1.59-.66.53-1.32,1.07-1.98,1.6M137.48,174.88l-.49.4-.49.4h-.01s.01,0,.01,0l.49-.4.49-.4c.27.36.55.73.83,1.09-.28-.36-.56-.73-.83-1.09M140.79,185.51c.2.04.4.09.58.13-.19-.05-.38-.1-.58-.13M151.71,184.98h0c.32-.28.63-.56.95-.84-.32.28-.63.56-.95.84M145.35,161.88c-.36.26-.71.53-1.06.79.35-.26.7-.53,1.06-.79.64-.51,1.28-1.03,1.92-1.55-.64.51-1.28,1.03-1.92,1.55M136.57,137.35h0c.32-.42.65-.84.97-1.26-.32.42-.65.84-.97,1.26M138.27,145.06c.27-.49.51-.99.7-1.48.19-.5.32-1,.36-1.5-.04.51-.17,1.01-.36,1.5-.19.5-.43.99-.7,1.48-.27.49-.56.98-.85,1.48.29-.49.59-.98.85-1.48M133.62,153c-.31.28-.62.55-.92.83.3-.28.61-.55.92-.83.26-.21.51-.43.76-.64-.25.21-.51.43-.76.64M134.48,185.61c1.14-2,2.28-4,3.42-6-1.14,2-2.28,4.01-3.42,6.01l-.03.06c.26.34.52.67.79,1.01.51.69,1.03,1.37,1.55,2.06-.52-.68-1.04-1.37-1.55-2.06-.27-.34-.53-.67-.79-1.01l.03-.07ZM155.12,170.49c-.45-1.3-.9-2.59-1.35-3.87.46,1.28.9,2.57,1.35,3.87M129.59,141.33h0c-.26-.34-.52-.68-.79-1.02.26.34.53.69.79,1.02M128.27,152.36c.29.33.57.66.86.99-.99.84-1.98,1.68-2.97,2.51.99-.84,1.99-1.68,2.97-2.51-.28-.33-.56-.67-.85-.99M117.9,172.49c.59.07,1.17.14,1.76.21-.59-.07-1.18-.14-1.76-.21M136.79,220.39h0c-1,.8-1.98,1.61-2.97,2.42.99-.81,1.97-1.61,2.97-2.42M139.57,219.78h0c-.26-.34-.53-.68-.78-1.02.25.34.52.68.78,1.02.66-.54,1.33-1.08,1.98-1.62-.66.54-1.32,1.08-1.98,1.62M154.81,165.81h-.1s.1,0,.1,0c1.01,1.38,2.03,2.74,3.05,4.11-1.02-1.37-2.05-2.74-3.05-4.11M157.15,160.5c-1.1-.76-2.19-1.52-3.29-2.29,1.11.77,2.2,1.53,3.3,2.29,0,0,0,0,0,0M156.81,155.82l.14.04h0s-.14-.04-.14-.04M166.77,116.09c1-.81,1.99-1.62,2.97-2.43-.99.81-1.98,1.62-2.97,2.43.26.34.52.68.78,1.02-.26-.34-.53-.69-.79-1.02M257.95,155.07c.18-.09.38-.16.58-.25-.2.09-.4.17-.58.25h0ZM212.36,150.36c-.22-.29-.45-.59-.66-.89.22.3.44.6.68.9-.01,0,.11.14.11.14h0s-.12-.15-.12-.15ZM216.19,125.81c.26.34.52.68.79,1.02h0c-.27-.34-.52-.68-.78-1.02M217.56,129.7h0c.66-.53,1.33-1.08,1.99-1.62-.66.54-1.33,1.08-1.99,1.62M203.16,127.9c.5,1.32,1,2.63,1.5,3.96-.5-1.32-1-2.64-1.5-3.96h0ZM209.17,139.85c.26.34.53.67.8.99-.27-.33-.54-.66-.8-.99M209.17,139.85h0c-.59-.07-1.18-.14-1.78-.21.6.07,1.19.14,1.78.21.33-.27.67-.54.99-.81-.32.27-.66.55-.99.81M178.86,121.26c-.27-.34-.55-.67-.82-1.02.27.34.56.68.83,1.02.42,1.31.85,2.62,1.27,3.94-.42-1.31-.85-2.62-1.28-3.94M176.62,124.72h0c.07-.62.15-1.22.21-1.84-.07.61-.15,1.22-.21,1.84M203.25,136.34h0c-.65.48-1.31.97-1.96,1.45.66-.48,1.31-.96,1.96-1.45M204.77,146.77h0s.01.02.02.02c0,0-.01-.02-.02-.02-.33.26-.66.53-1,.79.34-.27.67-.53,1-.79M209.95,140.87c.26.34.52.67.78,1-.27-.33-.52-.66-.78-1-.33.27-.67.54-.99.8.32-.27.66-.54.99-.81M221.83,154.41h0c-.58-.06-1.16-.13-1.73-.19.57.06,1.15.13,1.73.19M174.48,111.42c-.23-.34-.46-.68-.69-1.02.23.34.46.68.69,1.02M203.59,149.41c.62-.56,1.26-1.13,1.89-1.68h0c-.63.56-1.27,1.12-1.89,1.68M216.18,157.44h0c-.33.27-.66.55-1,.82.33-.27.66-.55.99-.82M232,161.22c.26.35.52.69.77,1.03-.26-.35-.51-.69-.77-1.03ZM242.51,156.04c.12-.16.24-.32.37-.48-.12.16-.24.32-.37.49-.33.25-.65.5-1,.74.34-.24.67-.5,1-.75M208.6,105.35c-.33.27-.66.54-.99.81.33-.27.66-.54.99-.81.6.08,1.2.16,1.8.24-.6-.07-1.2-.15-1.8-.24M208.01,102.48c-.07.62-.13,1.23-.2,1.84.07-.61.13-1.22.2-1.84.65-.55,1.32-1.09,1.98-1.63-.66.54-1.32,1.08-1.98,1.63M207.99,102.48c-1.43-.48-2.85-.96-4.27-1.44,1.42.48,2.84.96,4.27,1.44M190.65,96.65h0c1.32-1.08,2.64-2.16,3.95-3.24-1.32,1.08-2.63,2.16-3.95,3.24M185.41,79.27c.88.41,1.75.83,2.62,1.24-.88-.42-1.75-.83-2.62-1.24M185.36,87.64c-.94.21-1.86.43-2.8.64.94-.21,1.86-.43,2.8-.64M180.49,106.6c.52.67,1.05,1.34,1.59,2.01-.53-.67-1.06-1.34-1.59-2.01-1.27.46-2.54.92-3.8,1.37,1.27-.45,2.53-.91,3.8-1.38M151.83,116.69c-2.08-.78-4.15-1.28-6.06,1.48h0c1.92-2.76,3.98-2.26,6.06-1.48.46.17.93.36,1.39.53-.46-.17-.93-.36-1.39-.53M135.41,129.95h0c-.92.2-1.85.4-2.78.6.93-.21,1.86-.41,2.78-.6M123.74,215.93s.07.4.07.4h0l-.06-.4ZM135.75,237.96h0s-.06.05-.1.07c.03-.02.07-.05.1-.07M141.46,234.9c-.27-.34-.53-.69-.78-1.03.1-1.19.21-2.39.32-3.59,0,0,.17-.15.17-.15-.31-.29-.6-.6-.88-.9-.59-.09-1.17-.16-1.75-.25.58.09,1.16.17,1.75.24.29.32.58.62.88.91l-.17.16c-.11,1.19-.22,2.39-.32,3.58.25.34.51.69.78,1.03M150.28,199.55c.16-.09.3-.2.44-.3-.14.1-.28.22-.44.3.35.7.7,1.39,1.05,2.09-.35-.7-.7-1.39-1.06-2.09M155.55,198.45h0c.26.36.52.71.78,1.07-.26-.35-.52-.71-.78-1.07M163.22,132.25c-.69.48-1.37,1.33-2.06,1.34.7-.02,1.38-.87,2.06-1.34h0ZM178.11,135.15h0c-.92.2-1.84.39-2.76.59.92-.19,1.84-.39,2.76-.59M182.81,132.94h0c-.71,1.14-1.41,2.28-2.12,3.42.71-1.14,1.41-2.27,2.12-3.42M187.23,197.66s0,0,0,0l.49-.41s-.5.41-.49.41M179.62,185.56h0c.61-.53,1.24-1.07,1.87-1.61-.63.54-1.26,1.08-1.87,1.61M179.57,185.53s0,0,0,0c0,.02-.01.05-.02.07-.47,2.09-.95,4.17-1.42,6.26.47-2.08.94-4.17,1.42-6.26.06-.62.11-1.25.16-1.88-.05.61-.1,1.21-.14,1.81M190.34,138.61c-.84-.41-1.7-.82-2.56-1.22.86.4,1.71.81,2.56,1.21.32-.29.63-.59.94-.88-.19-.36-.37-.71-.58-1.05.21.34.39.7.59,1.05-.32.3-.63.59-.95.88,2.22,1.49,4.45,2.96,6.68,4.44-2.23-1.48-4.46-2.96-6.68-4.43M254.15,156.73c.28.26.56.51.86.74-.3-.23-.58-.48-.86-.74-.32.18-.64.35-.98.51.33-.16.65-.33.98-.51M262.14,213.28h0c-.41.36-.82.72-1.22,1.07.41-.36.81-.72,1.22-1.07M268.66,156.41c-.68.49-1.33.97-2,1.45.66-.48,1.32-.96,1.98-1.45.4-.88.79-1.76,1.18-2.65-.39.89-.78,1.76-1.17,2.65M193.27,89.53c-.34.28-.67.55-1.01.81.34-.27.67-.54,1-.81-.2-1-.41-2-.63-3,.22,1,.43,2,.64,2.99M165.44,98.92c-.92-.72-1.7-1.99-2.59-2.87-1.34,1.07-2.67,2.13-4,3.2h0c1.34-1.07,2.67-2.13,4-3.2.88.88,1.67,2.15,2.59,2.87M114.19,165.53h0c-.66.54-1.32,1.07-1.98,1.61.66-.53,1.32-1.07,1.98-1.61M112.99,168.16h0c-.33.27-.66.55-1,.82.34-.27.67-.54,1-.82M118.07,202.24h0c.22-1.8.44-3.6.66-5.4.4-.9.79-1.8,1.19-2.69-.39.89-.78,1.79-1.19,2.69-.21,1.8-.43,3.6-.66,5.4-.07.64-.15,1.27-.22,1.91.08-.63.15-1.27.22-1.91M120.45,213.7c.46,1.23.91,2.46,1.38,3.68-.47-1.22-.92-2.45-1.38-3.68M140.9,252.11c-.31-.18-.63-.28-.94-.39.31.12.63.21.94.39M139.46,251.51c-.37-.1-.75-.12-1.12-.14.37.02.75.04,1.12.14M138,251.34c-.47,0-.94.08-1.42.2.47-.12.95-.2,1.42-.2M136.18,257.53h0s.48-.41.48-.41c0,0-.48.4-.48.41M147.92,209.66c.35-.26.71-.52,1.04-.77,1.34-.27,3.07-.19,4.24-.6-1.17.41-2.9.33-4.23.6-.35.26-.7.52-1.05.77M156.33,199.53h0c1.33-1.11,2.67-2.23,4-3.34-1.33,1.11-2.67,2.22-4,3.34M158.59,156.03h0c.6.08,1.19.14,1.79.22-.59-.07-1.18-.14-1.79-.22M161.4,155.4h0c.34-.26.66-.51.98-.77-.33.26-.65.51-.98.77M171.09,125.96c.24.32.49.64.74.96-.25-.32-.5-.64-.74-.95-1.01.79-2.02,1.58-3.03,2.37,1.01-.79,2.02-1.58,3.03-2.37M180.04,205.16h0c-.51-.69-1.03-1.37-1.55-2.06.51.69,1.03,1.37,1.55,2.06M181.41,209.05h0c.07-.61.13-1.22.2-1.84-.07.61-.13,1.23-.2,1.84M201.84,195.59c1.35-1.04,2.69-2.09,4.03-3.13-1.34,1.04-2.68,2.09-4.03,3.13-1.42-1.36-3.25-2.53-4.51-3.98,1.26,1.45,3.09,2.62,4.51,3.97M206.32,157.16c1.35,1.16,2.7,2.32,4.05,3.48-1.34-1.16-2.7-2.32-4.05-3.48M221.24,168.3c1.19.14,2.39.28,3.57.43-.13,1.22-.28,2.44-.41,3.66.13-1.22.28-2.44.41-3.66-1.19-.15-2.38-.29-3.57-.43M224.82,168.73h0c.33-.27.67-.54,1-.82.4-.88.8-1.75,1.2-2.63-.4.88-.8,1.75-1.19,2.63-.34.27-.67.54-1,.81.52.68,1.04,1.36,1.56,2.05-.52-.68-1.04-1.37-1.56-2.05M234.45,179.26h0c1.92-1.02,3.84-2.05,5.77-3.07-1.93,1.02-3.84,2.05-5.77,3.07M243.48,173.83s0,0,0,0c.84-2.42,1.69-4.83,2.52-7.25-.83,2.41-1.67,4.83-2.52,7.25M267.43,213.92c-.07.63-.15,1.27-.22,1.9-.34.26-.68.53-1.03.79.34-.26.69-.53,1.03-.79.07-.63.15-1.27.22-1.9-.49-.69-1-1.39-1.5-2.08.49.69,1,1.38,1.5,2.07.88.42,1.74.83,2.61,1.25.61.07,1.22.14,1.82.21-.6-.07-1.21-.14-1.82-.21-.87-.42-1.73-.84-2.61-1.25M273.4,217.45h0c-.34.25-.68.5-1.01.75.33-.24.67-.5,1.01-.75M269.3,150.87c.18.27.36.55.55.83-.19-.28-.38-.55-.56-.83,1.38-1.69,2.78-3.38,4.16-5.07-1.38,1.69-2.78,3.38-4.15,5.07M258.38,119.78c-.85-.41-1.71-.83-2.56-1.25.85.42,1.7.83,2.56,1.25M211.85,92.72c.32-.27.65-.53.97-.79-.32.26-.65.53-.97.79M116.62,191.9c-.67.52-1.34,1.03-2.01,1.55-.87.21-1.74.43-2.6.65.86-.22,1.73-.44,2.6-.65.67-.52,1.34-1.03,2.01-1.55M135.85,244.44h0c-1.52.14-3.04.27-4.56.39,1.52-.12,3.04-.26,4.56-.39M136.52,251.55c-.47.13-.94.31-1.41.54.47-.23.94-.42,1.41-.54M143.27,258.38h0c.59.07,1.19.14,1.79.22-.6-.07-1.2-.15-1.79-.22M160.16,158.12c.93-.21,1.86-.41,2.77-.62-.92.2-1.84.41-2.77.62-.05.55-.1,1.1-.16,1.66.06-.56.11-1.11.16-1.66M175.7,203.7h0l-.5.41.5-.41ZM201.68,197.55c.32-.27.66-.53.99-.8-.32.27-.67.53-.99.81-2.27,1.26-4.55,2.52-6.83,3.79,2.28-1.27,4.56-2.52,6.83-3.79M219.44,183s0,0,0,0c-1.33.55-2.61,1.49-3.98,1.61,1.36-.12,2.65-1.06,3.98-1.62M225.81,193.21c.12.09.23.2.34.3-.11-.1-.23-.2-.34-.29h0ZM230.86,180.31c-.64.03-1.17-.12-1.58-.49.41.37.94.52,1.58.49M229.19,179.77c-.21-.21-.38-.49-.5-.86.12.36.29.64.5.86M271.39,219.07h0c-.27-.13-.53-.26-.8-.39.27.13.53.26.8.39M273.4,217.43h0c1.31-1.06,2.63-2.11,3.94-3.17-.44,1.48-.89,2.95-1.34,4.42.45-1.47.9-2.94,1.34-4.42-1.31,1.06-2.63,2.11-3.94,3.17M319.72,214.69h0c-.59-.07-1.18-.15-1.76-.21.58.07,1.17.14,1.76.21M306.52,267.06h0c-.47,1.5-.94,2.99-1.4,4.47.46-1.48.94-2.97,1.4-4.47M296.7,353.35c.25.34.49.67.75,1-.25-.34-.5-.66-.75-1l-.05-.03.05.02ZM308.14,322.98c0,.63.3,1.44.86,2.41-.56-.96-.87-1.78-.86-2.41M295.85,297.4c.32-.28.63-.55.95-.82,1.53-.13,3.05-.24,4.58-.37-1.52.13-3.05.24-4.58.38-.32.27-.64.54-.95.82M292.07,267.15v.07c.77,1.01,1.54,2.01,2.3,3.02-.77-1.01-1.53-2.01-2.31-3.02,0,0,0-.07,0-.07M290.18,268.83c-.61-.08-1.24-.18-1.87-.26.62.08,1.25.18,1.87.26ZM292.18,250.43s0,0,0,0h0s0,0,0,0M290.67,240.02h0l.49-.4-.49.4ZM315.46,306.33c-.47-.67-.94-1.36-1.41-2.03.47.67.94,1.36,1.42,2.03h0ZM316.62,297.13h0c-.66.54-1.32,1.07-1.99,1.62.67-.55,1.34-1.08,1.99-1.62M308.63,217.07c-.34.26-.67.54-1.01.8.33-.27.67-.54,1-.8.15-1.23.28-2.46.42-3.68-.14,1.23-.27,2.46-.42,3.68M302.42,341.95h0c-.23-.35-.48-.7-.72-1.04.24.34.5.69.72,1.04M293.26,359.43c-.33.27-.65.55-.99.83,0,0,0,0,0,0,.33-.27.66-.55.99-.82M312.77,315.28h0c1.74-1.96,3.47-3.91,5.22-5.88-1.75,1.96-3.48,3.92-5.22,5.88M306.52,267.05h0c.08-.61.15-1.23.21-1.83-.06.61-.13,1.22-.21,1.83M301.25,258.03h0c1.33-1.07,2.65-2.16,3.97-3.24-1.33,1.08-2.65,2.17-3.97,3.24M321.3,216.76c-.34.27-.67.54-.99.8.32-.26.65-.53.99-.8.53.67,1.05,1.36,1.58,2.03-.52-.68-1.05-1.36-1.58-2.03M319.79,206.35c-.34.26-.67.52-1,.79.33-.27.66-.54,1-.8,1.52-.14,3.03-.27,4.54-.4-1.51.14-3.02.27-4.54.41M283.21,192.63c1-.2,2.01-.4,3.02-.6-1.01.2-2.02.4-3.02.61h0ZM277.58,157.45h0c.24.35.49.69.73,1.04-.25-.35-.49-.69-.73-1.04M273.48,145.84h0c.66-.55,1.33-1.1,1.99-1.65-.67.56-1.34,1.11-1.99,1.65M280.32,125.24h0c.26.34.52.68.78,1.01-.66.54-1.32,1.07-1.98,1.61.66-.54,1.32-1.08,1.98-1.61-.25-.34-.52-.68-.78-1.01M279.12,127.88h0c-.33.27-.65.54-.99.81.34-.27.66-.54.99-.81M273.36,130.9h0c.99-.81,1.98-1.62,2.97-2.43-.98.81-1.98,1.62-2.97,2.43M192.21,67.07c-.26-.35-.52-.69-.78-1.03.25.35.53.68.78,1.03.6.07,1.19.14,1.79.21-.59-.07-1.18-.15-1.79-.21M191.65,64.24h0c-.32.25-.65.49-.98.74.32-.26.65-.5.98-.74M187.07,64.63c-.34.26-.67.52-1,.78.33-.26.67-.53,1-.79h0ZM151.51,83.52c-.62.59-1.23,1.19-1.84,1.79-.52,1.44-1.02,2.89-1.55,4.33.52-1.44,1.03-2.88,1.53-4.33-1.62.66-3.25,1.32-4.88,1.97h0c1.63-.66,3.26-1.32,4.88-1.97.62-.59,1.24-1.19,1.85-1.79-.51-.68-1.01-1.36-1.52-2.02,0,0,0,0,0,0,.64-.59,1.28-1.18,1.91-1.77-.63.6-1.27,1.18-1.91,1.77.5.67,1.01,1.35,1.51,2.03M149.95,81.47h0c-.91.2-1.83.4-2.73.61.9-.2,1.82-.41,2.73-.61M102.9,146.61c-.48.87-.94,1.75-1.4,2.62h0c.46-.87.93-1.75,1.4-2.62.88-.19,1.76-.39,2.63-.58-.87.19-1.75.39-2.63.58M116.7,206.77h-.01c-.26-.34-.52-.69-.78-1.02.26.34.52.68.79,1.02M116.58,217.48c-1.31,1.3-2.68,2.67-4.2,4.17,1.52-1.51,2.89-2.88,4.2-4.17M122.4,243.76c.85.41,1.7.83,2.56,1.23-.86-.4-1.71-.82-2.56-1.23-1.77-3-3.54-5.99-5.32-8.99,1.78,3,3.55,6,5.32,8.99M128.96,256.65h0s.1,0,.1,0h-.1ZM146.49,254.12h0s.02-.02.03-.03c-.01,0-.02.02-.03.03M158.4,244.42c-.8-1.01-1.58-2.03-2.37-3.05h0c.79,1.02,1.57,2.04,2.37,3.05M167.85,210.18c1.98-2.24,3.97-4.47,5.95-6.72h0c-1.97,2.25-3.97,4.48-5.95,6.72M190.89,213h0s0,0,0,0ZM190.89,213c-.34.27-.67.55-1,.82.32-.27.66-.55,1-.82M237.06,203.71c.34-.27.67-.54,1-.8.52.68,1.05,1.36,1.57,2.04-.52-.68-1.05-1.36-1.57-2.04-.33.26-.66.53-1,.8,0,.02,0,.03,0,.05,0-.02,0-.03,0-.05ZM274.15,226.78c-.3.28-.59.56-.89.84h-.22c-.54-.07-1.07-.14-1.61-.21.54.07,1.07.14,1.62.2,0,0,.21,0,.21,0,.3-.28.59-.57.89-.85,0,0,0,0,0,0M268.87,217.83h0c.51.68,1.03,1.36,1.53,2.03-.5-.67-1.02-1.35-1.53-2.03M290.66,240.01h0c-1.11-.76-2.23-1.52-3.35-2.27,1.12.76,2.23,1.51,3.35,2.27M270.06,267.9c.38,0,.75.02,1.1.06-.35-.05-.72-.06-1.1-.06M304.05,312.34l.02.03s-.02-.03-.03-.03c-.86-.41-1.7-.82-2.56-1.23.86.41,1.7.82,2.57,1.23M304.55,331.9c-.68.56-1.35,1.11-2.01,1.67.67-.56,1.33-1.11,2.01-1.67-.53-.67-1.06-1.33-1.59-2,.52.67,1.05,1.33,1.59,2M291.76,349h0c.33-.27.66-.54.98-.81-.32.27-.66.54-.98.81M325.77,311.41h0c-.32.23-.62.46-.93.69.31-.23.62-.47.93-.69M314,249.44c-.27-.38-.55-.75-.83-1.12.27.37.56.74.83,1.12h0ZM322.34,239.2h0c.09-.59.18-1.19.26-1.79-.08.61-.16,1.2-.25,1.79M284.56,183.42h0c-.4-1.9-.81-3.8-1.22-5.7.41,1.9.82,3.8,1.23,5.7M292.56,160.28v.04c-.4.85-.79,1.71-1.18,2.55.39-.85.78-1.7,1.18-2.56v-.03M287.87,162.43c.65-.54,1.29-1.09,1.93-1.63-.64.54-1.28,1.09-1.93,1.63h-.06s.06,0,.06,0ZM292.16,132.25h0c.19.96.38,1.91.57,2.86-.18-.95-.38-1.9-.57-2.86M289.79,129.17c-.26-.33-.53-.67-.8-1h0c.26.34.53.67.79,1M288.3,118.77c-.51-.69-1.02-1.38-1.53-2.06h0c.51.69,1.02,1.37,1.53,2.06M220.31,65.83c-.85-.41-1.7-.82-2.54-1.23-1.33,1.08-2.66,2.16-3.98,3.24,1.32-1.08,2.65-2.16,3.98-3.24.84.41,1.69.83,2.54,1.23M216.98,63.55h0c-.2-.93-.4-1.86-.6-2.79.2.93.41,1.86.6,2.79M212.64,62.07c.33-.26.67-.52,1.02-.77-.34.25-.68.51-1.02.77h0c-.25-.38-.52-.76-.77-1.15.26.39.52.77.77,1.15M206.36,62.16c.31-.23.63-.46.95-.69-.32.22-.64.45-.95.69-.61-.09-1.22-.18-1.83-.26.61.09,1.22.17,1.83.26M191.64,64.22h0c-.19-.22-.37-.44-.56-.67.19.23.37.45.56.67M182.33,66.76c-.21.17-.42.35-.63.52.2-.17.41-.34.62-.52-.24-.33-.52-.67-.77-1,.26.34.53.67.78,1M161.06,70.67h0c-.98.82-1.97,1.65-2.95,2.47,0,0,0,0,0,0,.99-.82,1.97-1.64,2.96-2.46M157.79,76.77c.59.05,1.18.08,1.77.12-.59-.04-1.18-.07-1.77-.12-.28-.3-.57-.59-.88-.88-.34.24-.69.46-1.05.67,0,0,0,0,0,0,.36-.21.71-.43,1.05-.67.31.28.59.57.88.88M143.73,80.04c-.3.18-.6.31-.92.44h0c.32-.13.63-.26.93-.44M132.91,88.71c-.85.21-1.71.43-2.56.64h0c.85-.21,1.71-.43,2.56-.64M127.07,87.8c-.09-.12-.14-.28-.13-.48,0,.2.03.37.13.48M112.84,130c-.07.61-.14,1.22-.2,1.83-.74,1.15-1.47,2.3-2.21,3.45.74-1.14,1.47-2.3,2.2-3.44.07-.61.14-1.22.2-1.83M99.65,145.63c-.34-.04-.67-.04-.98.05.31-.09.63-.09.98-.05M89.09,155.96h0c-.06.58-.11,1.17-.17,1.75.06-.58.11-1.16.17-1.75M94.92,176.21c-.32.26-.66.54-.98.81.32-.27.65-.55.98-.81M95.48,179.1c.74,1.01,1.48,2.02,2.22,3.02h0c-.73-1-1.48-2.01-2.22-3.02M109.07,194.66c-.53-.66-1.07-1.32-1.6-1.99.04-.21.09-.42.13-.63-.04.21-.08.42-.13.63.53.67,1.07,1.33,1.6,1.99M108.93,196.59c.23.32.46.64.71.94-.24-.31-.48-.62-.71-.94-.82-1.06-1.64-2.13-2.46-3.19.81,1.06,1.64,2.13,2.46,3.19M92.23,230.07c.66.05,1.4.03,2.2-.04-.8.07-1.53.09-2.2.04M149.46,251.69h0s.01-.03.02-.04c0,.01-.01.03-.02.04,1.89,2.42,3.77,4.83,5.67,7.24-1.9-2.41-3.78-4.83-5.67-7.24M159.97,238.08h0c.88.42,1.76.84,2.64,1.26-.88-.42-1.76-.85-2.64-1.26M171.32,210.63c.25.34.51.67.76,1-.25-.33-.51-.66-.76-1,1.25-.47,2.5-.94,3.76-1.41-1.26.47-2.51.94-3.76,1.41M176.64,211.26c.27.34.52.69.79,1.03,0,0,0,0,0,0-.26-.34-.52-.68-.78-1.03M190.9,213,201.32,216.07c.31-.25.64-.51.97-.77-.33.26-.65.52-.97.77-1.1-.74-2.21-1.48-3.31-2.23,1.1.74,2.21,1.48,3.31,2.22M228.94,203.75c-.67.5-1.33,1-2,1.51.67-.5,1.33-1.01,2-1.51,1.79.19,3.58.38,5.36.57-1.78-.19-3.57-.38-5.36-.57M275.35,224.25c-1.12-.78-2.25-1.55-3.38-2.32,1.12.77,2.26,1.54,3.38,2.31.26.32.51.64.76.97-.24-.32-.49-.64-.76-.96M287.52,299.17c.86.43,1.71.84,2.56,1.25h0c-.86-.41-1.71-.83-2.56-1.25M301.63,317.64h0c-.26-.35-.51-.68-.77-1.02.26.34.51.67.77,1.02M300.66,318.43s0,.02,0,.02v-.03c.33-.26.65-.52.97-.78-.32.26-.64.52-.96.78.25.35.5.71.77,1.05,0,0-.01,0-.01,0h0c-.26-.34-.51-.69-.76-1.04M293.18,344.47c-.6-.05-1.2-.1-1.8-.16.6.06,1.2.11,1.8.16M291.76,349.03h0c.26.33.52.67.78,1,0,0,0,0,0,0-.27-.34-.52-.67-.78-1-.46,1.49-.94,2.98-1.39,4.47.46-1.49.93-2.98,1.39-4.47"/>
  <path class="st2" d="M252.71,75.37c-4.19-6.35-7.68-7.09-14.57-2.79,4.81,3.36,9.08,6.31,14.57,2.79"/>
  <path class="st2" d="M344.2,223.96c1.99.17,4.65,1.25,5.85.32,2.27-1.76,3.7-4.67,5.48-7.1-.05-9.82-7.13-3.89-11.76-6.19,1.17,3.06,1.9,5.01,2.64,6.94-.74,2.01-1.47,4.01-2.21,6.02"/>
  <path class="st2" d="M354.62,351.01c-.23-.31-.46-.63-.69-.96.23.32.46.65.69.95.28.37.55.74.82,1.11.75-1.15,1.51-2.29,2.25-3.45.06-.61.11-1.22.16-1.84-.53-.69-1.07-1.38-1.62-2.07-.8.38-1.61.77-2.41,1.15-.44.1-.89.21-1.32.31-.36.29-.73.57-1.1.84,0,0-.43.35-.43.35l-.44.35c-.74,1.16-1.46,2.3-2.19,3.46-.07.57-.15,1.14-.22,1.72,2.45-.27,4.89-.55,7.33-.83-.28-.36-.54-.73-.82-1.1M353.28,347.16c.27.33.52.67.77,1.01h0c-.24-.34-.5-.68-.76-1.01"/>
  <path class="st2" d="M374.1,308.76c3.34-4.47,1.82-7.45-2.71-9.51-.28.23-.55.47-.83.72.28-.25.55-.49.83-.73-.21-.38-.43-.77-.65-1.16.1-.59.18-1.18.27-1.77.71-1.04,2.11-2.17,1.98-3.08-.26-1.83-1.35-3.55-2.08-5.31-1.51.12-3.02.23-4.53.35-.92.19-1.85.38-2.78.57-1.12-.75-2.23-1.49-3.34-2.24-.93.19-1.86.38-2.8.58-5.58.77-3.71,6.32-5.66,9.43-.93,1.88-1.48,4.18-2.88,5.57-5.16,5.11-4.17,10.23-.63,15.57.02.62.03,1.23.05,1.86.15.31.33.61.52.88.9,1.16,1.8,2.33,2.69,3.5,2.08,3.36,4.66,4.88,8.36,2.5,3.24-2.08,6.78-3.82,9.58-6.4,1.06-.97.43-3.91.56-5.95,0,0,0,0,0-.01.19-.24.37-.49.54-.75,4.98,1.53,4.7-1.16,3.49-4.61M350.47,316.15c-.3.28-.6.54-.9.81.25.33.51.67.77,1.01-.25-.34-.52-.68-.78-1.01.31-.27.61-.54.91-.81M372.96,309.55c-.27-.34-.52-.68-.78-1.01.5.08,1.01.16,1.5.24-.49-.08-1-.16-1.5-.24.26.34.51.67.78,1.01"/>
  <path class="st2" d="M289.4,377.53c-.75,1.18-1.5,2.36-2.25,3.54,1.19.13,2.4.26,3.6.39.33-.27.66-.54.99-.81-.78-1.04-1.56-2.07-2.33-3.11"/>
  <path class="st2" d="M270.37,378.11c-.34.24-.66.48-.98.75-.08.61-.16,1.22-.25,1.83-1.05,1.43-2.1,2.85-3.15,4.28,1.97,1.17,3.94,2.34,5.91,3.51,1.26-.47,2.51-.94,3.76-1.41.09-.61.16-1.22.24-1.82.12-1.22.26-2.44.39-3.66-.53-.69-1.04-1.38-1.57-2.07-1.45-.46-2.9-.93-4.34-1.4"/>
  <path class="st1" d="M90.55,254.79c-.22.54-.44,1.07-.65,1.6.45-.23.89-.46,1.34-.69,0-.14.02-.34-.05-.42-.18-.19-.41-.33-.63-.49"/>
  <g class="st4">
    <path class="st1" d="M213.62,307.03c-1.48-1.63-4.56-1.12-6.94-1.55-1.69-1.53-3.41-3.08-5.11-4.61-1.27-3.87-3.47-5.32-6.86-3.74-3.38.18-6.76.38-10.47.59.46,2.11.85,4,1.24,5.9-.94,2.21-1.89,4.42-2.83,6.66-1.38.87-2.76,1.73-4.13,2.6-1.82,2.56-3.83,4.97-5.37,7.75-.78,1.39-.73,3.46-1.04,5.23-.06.64-.14,1.27-.2,1.9-1.11.46-2.2.92-3.31,1.39-1.1.94-2.67,1.61-3.19,2.88-1.06,2.62-1.58,5.55-2.32,8.36-.74-.04-1.48-.08-2.21-.12-1.95.66-3.92,1.31-5.87,1.97-.66-.82-1.3-1.63-1.3-1.63-2.77,2.97-5.04,5.4-6.88,7.34,2.06,1.32,4.21,2.71,6.35,4.09.29-.28.59-.55.88-.83,0,.03,0,.04.01.07.37,1.68.73,3.37,1.1,5.05.18.34.38.69.57,1.02.48.73.96,1.45,1.43,2.17h-.01c-.47-.71-.94-1.44-1.42-2.17-.67,1.18-1.35,2.34-2.02,3.51-.08.13-.22.26-.23.4,0,.3.06.61.11.91-.02.28-.03.57-.02.86-.04.32-.08.63-.12.95-.09.29-.18.58-.26.87-.44-.09-.88-.2-1.33-.3-3.63-4.35-11.86-3.66-14.82,1.26-.07.3-.12.61-.17.9-1.12.53-2.23,1.03-3.35,1.53-.97,1.53-1.93,3.05-2.9,4.57-2.48.4-4.97.81-7.45,1.2-.28.29-.54.57-.82.86-.24-.05-.49-.11-.73-.16-.07.36-.11.71-.16,1.07-.06.36-.11.7-.15,1.06.66,1.68,1.32,3.34,1.98,5.02.17.69.35,1.39.53,2.09.22.37.43.74.66,1.11-.72,2.05-1.73,4.03-2.07,6.14-.29,1.88-.34,3.8-.37,5.72l34.42,5.9c-.15-1-.3-2.01-.47-3.01.03-.32.06-.62.1-.93-.03.3-.06.61-.09.93.15,1,.3,2.01.46,3.01l17.98,3.09c-.77-1.96-2.44-3.41-4.96-4.08-.51-.13-1-.34-1.51-.52-.52-1.33-1.42-3.84-1.55-3.84-3.23,1.55-3.1-1.98-4.08-3.78.16-1.61.34-3.21.5-4.82.8.1,1.59.2,2.39.29,1.48,3.2,2.21.18,3.22-.67.1-.29.17-.58.2-.9.1-.28.19-.56.25-.85.26-.33.51-.65.76-.98.08-.22.12-.46.14-.7l.34.03.34.07c.28.04.57.09.87.13.51.03,1.01.07,1.51.09,3.04,2.46,5.33,0,7.68-2.01,3.74,5.44,6.38-2.55,9.63-1.12.27-2.52.51-4.61.73-6.72,1.52-3.74,3.03-7.48,4.54-11.21,2.3,1.04,4.6,2.09,7.88,3.58-1.15-3.51-1.83-5.65-2.53-7.78,1.69-.07,3.38-.12,5.1-.16-.01-.58-.02-1.15-.02-1.7-1.66-.49-3.19-5.56-5.02.79-.8-.08-1.6-.16-2.41-.24-.44-.75-.89-1.51-1.32-2.26-3.84-1.8-7.67-3.59-11.52-5.39-.16-.65-.33-1.28-.49-1.93.34-1.6.67-3.2,1-4.79.03-2.03.07-4.05.1-6.09l.94-1.74c.05-.32.11-.65.16-.97.42-1.6.84-3.18,1.26-4.78,1.06.12,2.14.25,3.21.37l.39.08.39.04c.84-.26,1.68-.53,2.52-.79.88-.49,1.73-.99,2.6-1.48.86-.61,1.72-1.22,2.58-1.82v.16c-.04.3-.08.62-.1.94.19.69.39,1.38.57,2.06-.02.33-.07.67-.1,1-.02.29-.04.6-.07.89,2.02-1.37,4.05-2.73,6.08-4.08-.15-1.03-.3-2.03-.47-3.05.9-.87,1.79-1.74,2.69-2.6l-.05-.11c.39-.57.77-1.14,1.16-1.7.3-.32.6-.61.91-.93h.01c.25.03.49.04.74.05l.35.07.37.04c.55-.27,1.12-.53,1.68-.78.12-1.41.37-2.83.33-4.23-.08-2.76.5-6.62-.73-7.97"/>
    <path class="st1" d="M165.32,403.01c-.03.32-.06.63-.09.96h-.01c.03-.33.06-.65.1-.96"/>
    <path class="st2" d="M167.59,367.72h-.01c.11-.96.22-1.92.32-2.87-.11.95-.22,1.9-.31,2.87"/>
    <path class="st1" d="M174.25,335.95c.1-.62.18-1.24.27-1.85h.01c-.1.61-.18,1.23-.28,1.85"/>
    <path class="st1" d="M186.41,335.56c-.26-.04-.51-.07-.77-.11.26.04.51.07.77.09h.01-.01Z"/>
    <path class="st1" d="M203.6,318.9v.03-.03c.03-.32.08-.63.11-.95-.03.32-.07.63-.11.95"/>
  </g>
</svg>