<?xml version="1.0" encoding="UTF-8"?>
<svg id="Layer_1" xmlns="http://www.w3.org/2000/svg" version="1.1" viewBox="0 0 473.68 459.37">
  <!-- Generator: Adobe Illustrator 29.7.1, SVG Export Plug-In . SVG Version: 2.1.1 Build 8)  -->
  <defs>
    <style>
      .st0 {
        fill: #ecebeb;
      }

      .st0, .st1 {
        fill-rule: evenodd;
      }

      .st1, .st2 {
        fill: #d9c5af;
      }
    </style>
  </defs>
  <path class="st0" d="M90.55,254.79c-.22.54-.44,1.07-.65,1.6.45-.23.89-.46,1.34-.69,0-.14.02-.34-.05-.42-.18-.19-.41-.33-.63-.49"/>
  <polygon class="st1" points="236.78 255.99 237.87 255.99 237.87 247.83 243.61 247.83 243.61 243.13 244.23 243.13 244.23 241.84 246.2 241.84 246.2 241.95 246.49 241.95 246.49 241.84 248.46 241.84 248.46 243.13 249.07 243.13 249.07 247.83 252.3 247.83 252.3 271.76 251.21 271.76 251.21 298.16 236.78 298.16 236.78 255.99"/>
  <polygon class="st1" points="346.9 254.58 343.92 253.88 340.74 255.73 340.74 291.84 346.9 291.75 346.9 254.58"/>
  <polygon class="st1" points="354.34 263.7 351.35 262.99 348.17 264.84 348.17 300.96 354.34 300.87 354.34 263.7"/>
  <polygon class="st1" points="378.75 231.04 372.08 229.64 367.24 231.04 367.24 272.6 369.95 272.6 369.95 276.03 381.45 276.03 381.45 234.48 378.75 233.91 378.75 231.04"/>
  <polygon class="st1" points="365.73 246.59 364.92 246.51 364.92 244.29 363.29 244.14 363.29 242.77 362.6 242.71 362.6 240.7 361.83 240.63 361.83 247.83 361.65 247.83 361.65 240.62 361.24 240.58 360.75 240.69 360.75 242.57 359.93 242.75 359.93 243.87 358.2 244.26 358.2 246.28 357.03 246.54 357.03 276.15 365.73 277.42 365.73 246.59"/>
  <path class="st2" d="M200.6,291.5h.6c.01-.55.02-1.78-.22-2.63h-.15c-.24.85-.24,2.08-.23,2.63M195.79,291.5h.6c.01-.55.02-1.78-.22-2.63h-.15c-.24.85-.24,2.08-.23,2.63M198.2,291.5h.6c.01-.55.01-1.78-.22-2.63h-.15c-.24.85-.24,2.08-.22,2.63M195.79,291.5h.6c.01-.55.02-1.78-.22-2.63h-.15c-.24.85-.24,2.08-.23,2.63M198.2,291.5h.6c.01-.55.01-1.78-.22-2.63h-.15c-.24.85-.24,2.08-.22,2.63M200.6,291.5h.6c.01-.55.02-1.78-.22-2.63h-.15c-.24.85-.24,2.08-.23,2.63M193.29,287.41v20.99h3v-14.23h4.41v14.23l10.56-8.19v-3.84h1.05v3.84h3.84l1.09-12.8h-23.96ZM200.32,288.47l.07-.2h1.01l.07.2c.43,1.21.32,3.26.31,3.35l-.02.28h-1.74l-.02-.28c0-.09-.12-2.14.31-3.35M197.92,288.47l.07-.2h1.01l.07.2c.44,1.21.32,3.26.31,3.35l-.02.28h-1.74l-.02-.28c0-.09-.12-2.14.31-3.35M195.52,288.47l.07-.2h1.01l.07.2c.43,1.21.32,3.26.31,3.35l-.02.28h-1.74l-.02-.28c0-.09-.12-2.14.31-3.35M196.02,288.87c-.24.85-.24,2.08-.23,2.63h.6c.01-.55.02-1.78-.22-2.63h-.15ZM198.42,288.87c-.24.85-.24,2.08-.22,2.63h.6c.01-.55.01-1.78-.22-2.63h-.15ZM200.83,288.87c-.24.85-.24,2.08-.23,2.63h.6c.01-.55.02-1.78-.22-2.63h-.15ZM193.29,281.9v4.91h24.01l.42-4.91h-24.43ZM216.76,300.21h15.68l-1.83-22.36h-11.94l-1.91,22.36ZM218.32,277.25h12.52l-.6-3.71h-11.32l-.6,3.71Z"/>
  <path class="st2" d="M266.4,291.75l7.87-2.88.02-.72-7.6-14.54v.83s-2.92,0-2.92,0l-.1.28h3.03v1.13s-3.05,0-3.05,0v-1.07l-3.95,11.08.12,2.61,4.08,3.29h2.5ZM266.12,291.46h-1.76l-.11-2.11h1.96l-.09,2.11ZM266.22,289.07h-1.98l-.1-1.97h2.16l-.08,1.97ZM266.32,286.82h-2.19l-.12-2.25h2.4l-.09,2.25ZM266.42,284.28h-2.43l-.06-1.13h2.53l-.05,1.13ZM263.64,276.12h3.06v1.13s-3.06,0-3.06,0v-1.13ZM263.65,277.53h3.05l-.05,1.13h-2.95l-.06-1.13ZM263.72,278.94h2.92l-.05,1.13h-2.82l-.06-1.13ZM263.79,280.34h2.79l-.05,1.13h-2.69l-.06-1.13ZM266.53,281.75l-.05,1.13h-2.56l-.06-1.13h2.66ZM263.6,190.44h0l-.02-.36,2.27-.42,1.02-.51-.1,1.03-.87.45-1.85.33-.07.3,1.99-.35.76-.4h0s-.02.45-.02.45l.08-.04,8.52,18.77-1.52-36.6-5.1-1.87-2.35,8.21-1.45.38-2.11-6.8-3.24,4.46-1.22,34.32,5.26-21.33ZM266.9,188.82l-1.12.56-2.21.41-.04-.95,2.17-.35,1.29-.67-.1,1ZM267.03,187.49l-1.39.73-2.12.34-.04-.88,2.23-.46,1.42-.76-.1,1.02ZM267.17,186.13l-1.53.82-2.17.44-.05-1.06,2.18-.29,1.65-.81-.09.89ZM267.29,184.92l-1.74.86-2.14.28-.06-1.43,2.2-.48,1.88-.68-.14,1.45ZM268.45,173.21l-.31,3.15-.63.18.94-3.33ZM267.41,176.86l.69-.2-.07.75-.84.24.22-.78ZM267.1,177.96l.9-.25-.1,1.04-1.09.28.3-1.07ZM266.71,179.34l1.15-.3-.15,1.56-1.48.44.48-1.71ZM266.14,181.36l1.54-.46-.11,1.1-1.76.52.33-1.16ZM265.51,183.6l.21-.75,1.82-.54-.08.85-1.58.57-.85.25-1.7.37-.03-.78,2.02-.59.19.63ZM264.95,181.72l.29.97-1.96.57-.05-1.04,1.71-.51ZM264.87,181.45l-1.64.49-.07-1.69,1.26-.32.45,1.52ZM264.34,179.66l-1.2.31-.04-.87.98-.28.25.84ZM264.01,178.55l-.91.26-.03-.67.75-.22.19.63ZM263.74,177.64l-.69.2-.13-2.93.81,2.73ZM266.42,270.49h-2.4l-.09-.28h2.64l-.14.28ZM274.39,173.64l1.91,4.04,1.46,21.81-.84,17.07,1.03,18.06-.77,18.03.99,18.43v16.24l-3.31,1.32.8-36.73.33-40.05-.03-.8h0s0-.02,0-.02l-1.55-37.41ZM263.6,230.03v-.23h2.8l.14-.28h-2.93l.04-1.07h2.95l.04.89,8.76-17.14v-.3s-.03-.7-.03-.7l-8.7-19.17-.04.97-.99.44-1.9.22-.04-.9,2.14-.28.81-.5-.12-.25-.76.47-2.09.27v-.04s-5.38,21.83-5.38,21.83l5.3,15.77ZM265.7,193.7l.93-.4-.04,1.12-1.02.51-1.76.12-.05-1.13,1.95-.23ZM264.36,207.76h1.71l-.04,1.06h-1.67v-1.06ZM264.35,207.48l-.05-1.18h1.21l.63-.15-.05,1.33h-1.74ZM264.36,209.09h1.67l.04,1.81h-1.78l.06-1.81ZM266.08,211.19l.03,1.41h-1.88l.05-1.41h1.79ZM266.12,212.88l.02.93h-1.95l.03-.93h1.89ZM265.47,206.02h-1.19l-.04-1,1.48-.13.46-.13-.04,1.11-.67.16ZM265.67,204.61l-1.45.12-.05-1.09,1.39-.12.67-.24-.05,1.18-.53.15ZM264.18,214.09h1.96l.03,1.48h-2.05l.05-1.48ZM266.18,215.85l.02,1.09h-2.13l.04-1.09h2.06ZM266.21,217.22l.03,1.14h-2.21l.04-1.14h2.14ZM266.24,218.64l.03,1.16v.02h-2.29l.04-1.18h2.22ZM266.26,202.98l-.73.26-1.36.12-.05-1.25h1.33l.85-.21-.04,1.08ZM265.41,201.83h-1.31l-.04-1.02h1.55l.74-.35-.04,1.14-.9.23ZM265.55,200.53h-1.5l-.05-1.18h1.63l.78-.33-.04,1.13-.82.38ZM265.57,199.07h-1.59l-.05-1.11h1.7l.83-.36-.04,1.11-.85.36ZM263.96,220.1h2.31l.04.99h-2.39l.03-.99ZM266.33,221.37l.05,1.2h-2.5l.04-1.2h2.41ZM266.39,222.85l.05,1.16h-2.61l.04-1.16h2.52ZM266.44,224.29l.04.98h-2.71l.03-.98h2.63ZM266.47,197.29l-.9.38h-1.65l-.04-.98,1.73-.09.91-.44-.04,1.12ZM265.56,196.33l-1.7.09-.05-1.08,1.79-.12.96-.47-.04,1.11-.97.47ZM263.77,225.56h2.73l.05,1.14h-2.81l.04-1.14ZM263.72,226.98h2.84l.05,1.18h-2.93l.04-1.18ZM278.15,287.94v8.14h-3.48l.15-6.81,3.33-1.33ZM263.51,296.07h-3.35s-.32-6.86-.32-6.86l3.66,2.96v3.9ZM274.12,296.07h-7.53v-3.79l7.67-2.81-.14,6.6ZM258.2,215.82v-.1s5.38,15.98,5.38,15.98l.03.58h.08l-5.36,18.6.77-17.09-.89-17.96ZM275.02,254.84l-.7,32.15-7.63-14.6v-.48h-3.04v1.13h2.74l.15.28h-2.67l-.26-.09-3.98,11.16-1.37-29.55,5.39,16.32h0s0,.47,0,.47h3.04v-.45s.02.01.02.01l8.32-16.35ZM266.02,296.07h-1.95v-3.75h1.95v3.75ZM275.1,249.92l-8.42-18.09.02-.68h-2.72l-.09-.28h2.82l-.02-.41h0s8.7-17.01,8.7-17.01l-.3,36.47ZM275.08,251.91v-.73s0,0,0,0l-8.43-18.12-.02.59h-2.75l-.08.28h2.83l-.04,1.25h-2.81l-.05-.97-5.43,18.86,5.37,16.27v-.27h3.02v.91s8.38-16.46,8.38-16.46l.04-1.63ZM266.56,235.48l-.04,1.09h-2.69l-.06-1.09h2.79ZM264.19,256.42h2.1v1.13h-2.1v-1.13ZM266.29,258.96h-2.1v-1.13h2.1v1.13ZM264.19,255.02h2.1v1.13h-2.1v-1.13ZM264.19,253.61h2.1v1.13h-2.1v-1.13ZM264.19,251.92h2.1v1.41h-2.1v-1.41ZM264.19,250.51h2.1v1.13h-2.1v-1.13ZM264.19,248.54h2.1v1.69h-2.1v-1.69ZM264.19,246.57h2.1v1.69h-2.1v-1.69ZM264.19,245.17h2.1v1.13h-2.1v-1.13ZM264.19,244.89v-1.13h2.1v1.13h-2.1ZM264.18,243.48l-.05-1.06h2.19l-.03,1v.06h-2.1ZM264.18,259.24h2.12l.04,1.13h-2.22l.06-1.13ZM266.33,242.14h-2.22l-.06-1.2h2.32l-.04,1.2ZM264.1,260.65h2.25l.04,1.13h-2.36l.06-1.13ZM266.38,240.67h-2.35l-.06-1.18h2.44l-.04,1.18ZM264.02,262.05h2.38l.04,1.13h-2.49l.06-1.13ZM266.43,239.21h-2.47l-.05-1.04h2.56l-.04,1.04ZM263.94,263.46h2.52l.04,1.13h-2.62l.06-1.13ZM266.48,237.89h-2.58l-.05-1.04h2.67l-.04,1.04ZM263.86,264.87h2.65l.04,1.13h-2.75l.06-1.13ZM263.79,266.27h2.78l.04,1.13h-2.89l.06-1.13ZM263.65,268.81l.06-1.13h2.91l.04,1.11h0s-3.02.01-3.02.01ZM264.18,232.56l.08-.28h2l.13.28h-2.21Z"/>
  <path class="st2" d="M316.61,221.58l-1.72.42v.47l-.35.24v1.88s-1.25-.35-2.54-.35v-7.23l-.2-1.13-.19,1.13v7.23s-.5-.02-.68-.02-.68.02-.68.02v-7.23l-.19-1.13-.2,1.13v7.23c-1.29,0-2.54.35-2.54.35v-1.88l-.35-.24v-.47l-1.72-.42h-.31v63.07h3.65v-.76h-.68v-3.86h6.05v3.86h-.68v.76h3.65v-63.07h-.31ZM306.65,247.09c-.19.01-.29.02-.29.02v-.47s.11,0,.29-.02v.47ZM306.65,245.99c-.19.01-.29.02-.29.02v-.47s.11,0,.29-.02v.47ZM307.04,234.44s.06-.03.21-.07v.47c-.15.04-.21.07-.21.07v-.47ZM307.35,247.04c-.12,0-.23.01-.33.02v-.47c.1,0,.21-.01.33-.02v.47ZM307.35,245.95c-.12,0-.23.01-.33.02v-.47c.1,0,.21-.01.33-.02v.47ZM308.44,246.99c-.11,0-.21,0-.31.01v-.47c.1,0,.2,0,.31-.01v.47ZM308.05,234.69v-.47c.08-.01.18-.02.27-.04v.47c-.1.01-.19.02-.27.04M308.44,245.9c-.11,0-.21,0-.31.01v-.47c.1,0,.2,0,.31-.01v.47ZM308.52,233.59h-1.08v-6.14s.8-.18,2-.27h0s.02,0,.02,0c0,0-.01,0-.02,0v5.12h-.92v1.29ZM309.03,234.12c.13,0,.26-.02.41-.03v.47c-.15,0-.28.02-.41.03v-.47ZM309.54,246.96c-.11,0-.21,0-.31,0v-.47c.1,0,.21,0,.31,0v.47ZM309.54,245.86c-.11,0-.21,0-.31,0v-.47c.1,0,.21,0,.31,0v.47ZM310.15,234.06c.12,0,.24,0,.37,0v.47c-.13,0-.25,0-.37,0v-.47ZM310.64,246.93c-.1,0-.21,0-.31,0v-.47c.1,0,.21,0,.31,0v.47ZM310.64,245.84c-.1,0-.21,0-.31,0v-.47c.1,0,.21,0,.31,0v.47ZM311.52,246.94c-.1,0-.21,0-.31,0v-.47c.11,0,.21,0,.31,0v.47ZM311.52,245.84c-.1,0-.21,0-.31,0v-.47c.11,0,.21,0,.31,0v.47ZM311.7,234.53c-.12,0-.24,0-.37,0v-.47c.13,0,.25,0,.37,0v.47ZM314.59,234.37c.15.04.22.07.22.07v.47s-.06-.03-.22-.07v-.47ZM312.62,246.96c-.1,0-.21,0-.31,0v-.47c.11,0,.21,0,.31,0v.47ZM312.62,245.87c-.1,0-.21,0-.31,0v-.47c.11,0,.21,0,.31,0v.47ZM312.81,234.58c-.13,0-.26-.02-.41-.03v-.47c.14,0,.28.02.41.03v.47ZM313.71,247.01c-.1,0-.2,0-.31-.01v-.47c.11,0,.21,0,.31.01v.47ZM313.71,245.91c-.1,0-.2,0-.31-.01v-.47c.11,0,.21,0,.31.01v.47ZM313.79,234.69c-.08-.01-.18-.02-.27-.04v-.47c.1.01.19.02.27.04v.47ZM314.4,233.59h-1.08v-1.29h-.92v-5.12s-.01,0-.02,0h.02c1.19.1,1.99.27,1.99.27v6.14ZM314.83,247.06c-.1,0-.21-.01-.33-.02v-.47c.12,0,.23.01.33.02v.47ZM314.83,245.97c-.1,0-.21-.01-.33-.02v-.47c.12,0,.23.01.33.02v.47ZM315.49,247.11s-.11,0-.29-.02v-.47c.19.01.29.02.29.02v.47ZM315.49,246.01s-.11,0-.29-.02v-.47c.19.01.29.02.29.02v.47ZM313.63,283.58h-5.42v-3.23h5.42v3.23Z"/>
  <path class="st2" d="M281.88,224.94l.45-3.15v-9.62l1.84-5.38h.07v10.18l-.44,3.69-1.91,4.27ZM283.45,228.25l-1.62,3.43,1.78,6.46,2.11-2.97-2.28-6.92ZM298.28,228.24l1.52-3.92-1.65-3.29.51-3.42v-10.82h-14.05v10.21s-.44,3.68-.44,3.68l1.35,3-1.84,4.06,2.45,7.44-.95,5.41v38.5h14.11s0-39.78,0-39.78l.82-4.24-1.84-6.83ZM283.98,221.18l-2,4.48,1.12,2.45.22-.46,1.8-3.97-1.13-2.51ZM284.8,240.57l.81-4.57-2.04,2.87-.66,3.91v36.31h1.9s0-38.53,0-38.53Z"/>
  <path class="st2" d="M324.83,206.44l11.06,1.13s2.36,15.36-.28,32.57c-3.24-8.17-9.51-29.37-10.78-33.7M323.58,243.66c-2.84,14.02-.5,32.99-.5,32.99h11.87c-3.96-10.56-8.81-25.22-11.37-32.99M335.62,241.15c-3.14-7.48-9.86-30.21-11.16-34.63l-4.44,2.89c-1.44,13.01,2.03,27.71,3.2,32.17,2.34,7.12,7.86,23.71,12.12,35.07h3.23c1.38-17.95-2.29-32.97-2.96-35.5"/>
  <path class="st2" d="M429.74,259.27c-6.38-1.83-17.91,8.55-33.71,9.77-3.58.28-6.77.58-9.64.91v-1.01s-8.25-1.24-8.25-1.24l-9.79,1.54v1.86l-7.36,4.17c-.15.05-.31.1-.46.15-.22.07-.46.17-.72.29v-1.41l-8.34.72v-1.85l-9.27.52v-2.89h-9.69v2.47l-5.25.52v-3.3l-6.18.52v2.26l-3.09,1.04v-1.85l-13.39,1.43v2.06h-4.23l-4.02,1.54v-1.54l-3.5-2.26-21.4.17-4.11,2.85v6.5l-16.37,6.02-76.76,21.06c-23.42,6.43-70.52,15.46-127.23,19.4l-17.22,78.37,356.67-43.99c39.74-2.92,52.42-101.49,43.32-104.8Z"/>
</svg>